<?xml version="1.0" encoding="UTF-8" standalone="no"?><svg xmlns="http://www.w3.org/2000/svg" xmlns:xlink="http://www.w3.org/1999/xlink" contentStyleType="text/css" height="560px" preserveAspectRatio="none" style="width:736px;height:560px;background:#FFFFFF;" version="1.1" viewBox="0 0 736 560" width="736px" zoomAndPan="magnify"><defs/><g><!--MD5=[672b2ff73d0170c31623eed8ccfd2ea5]
class Departamento--><g id="elem_Departamento"><rect codeLine="2" fill="#F1F1F1" height="83.2188" id="Departamento" rx="2.5" ry="2.5" style="stroke:#181818;stroke-width:0.5;" width="122" x="43" y="318"/><ellipse cx="58" cy="334" fill="#ADD1B2" rx="11" ry="11" style="stroke:#181818;stroke-width:1.0;"/><path d="M60.7656,329.875 Q60.9219,329.6563 61.1094,329.5469 Q61.2969,329.4375 61.5156,329.4375 Q61.8906,329.4375 62.125,329.7031 Q62.3594,329.9531 62.3594,330.5625 L62.3594,332.0156 Q62.3594,332.625 62.125,332.8906 Q61.8906,333.1563 61.5156,333.1563 Q61.1719,333.1563 60.9688,332.9531 Q60.7656,332.7656 60.6563,332.25 Q60.6094,331.8906 60.4219,331.7031 Q60.0938,331.3281 59.4844,331.1094 Q58.875,330.8906 58.25,330.8906 Q57.4844,330.8906 56.8438,331.2188 Q56.2188,331.5469 55.7188,332.2969 Q55.2344,333.0469 55.2344,334.0781 L55.2344,335.1719 Q55.2344,336.4063 56.125,337.2344 Q57.0156,338.0469 58.6094,338.0469 Q59.5469,338.0469 60.2031,337.7969 Q60.5938,337.6406 61.0156,337.2031 Q61.2813,336.9375 61.4219,336.8594 Q61.5781,336.7813 61.7813,336.7813 Q62.1094,336.7813 62.3594,337.0469 Q62.625,337.2969 62.625,337.6406 Q62.625,337.9844 62.2813,338.3906 Q61.7813,338.9688 60.9844,339.2969 Q59.9063,339.75 58.6094,339.75 Q57.0938,339.75 55.8906,339.125 Q54.9063,338.625 54.2188,337.5625 Q53.5313,336.4844 53.5313,335.2031 L53.5313,334.0469 Q53.5313,332.7188 54.1406,331.5781 Q54.7656,330.4219 55.8594,329.8125 Q56.9531,329.1875 58.1875,329.1875 Q58.9219,329.1875 59.5625,329.3594 Q60.2188,329.5156 60.7656,329.875 Z " fill="#000000"/><text fill="#000000" font-family="sans-serif" font-size="14" lengthAdjust="spacing" textLength="90" x="72" y="339.7285">Departamento</text><line style="stroke:#181818;stroke-width:0.5;" x1="44" x2="164" y1="350" y2="350"/><text fill="#000000" font-family="sans-serif" font-size="14" lengthAdjust="spacing" textLength="61" x="49" y="368.5332">int codigo</text><text fill="#000000" font-family="sans-serif" font-size="14" lengthAdjust="spacing" textLength="89" x="49" y="386.1426">String nombre</text><line style="stroke:#181818;stroke-width:0.5;" x1="44" x2="164" y1="393.2188" y2="393.2188"/></g><!--MD5=[4da02cefe03f5f283808fbbc965e8df2]
class Municipio--><g id="elem_Municipio"><rect codeLine="7" fill="#F1F1F1" height="100.8281" id="Municipio" rx="2.5" ry="2.5" style="stroke:#181818;stroke-width:0.5;" width="194" x="7" y="77.5"/><ellipse cx="70.25" cy="93.5" fill="#ADD1B2" rx="11" ry="11" style="stroke:#181818;stroke-width:1.0;"/><path d="M73.0156,89.375 Q73.1719,89.1563 73.3594,89.0469 Q73.5469,88.9375 73.7656,88.9375 Q74.1406,88.9375 74.375,89.2031 Q74.6094,89.4531 74.6094,90.0625 L74.6094,91.5156 Q74.6094,92.125 74.375,92.3906 Q74.1406,92.6563 73.7656,92.6563 Q73.4219,92.6563 73.2188,92.4531 Q73.0156,92.2656 72.9063,91.75 Q72.8594,91.3906 72.6719,91.2031 Q72.3438,90.8281 71.7344,90.6094 Q71.125,90.3906 70.5,90.3906 Q69.7344,90.3906 69.0938,90.7188 Q68.4688,91.0469 67.9688,91.7969 Q67.4844,92.5469 67.4844,93.5781 L67.4844,94.6719 Q67.4844,95.9063 68.375,96.7344 Q69.2656,97.5469 70.8594,97.5469 Q71.7969,97.5469 72.4531,97.2969 Q72.8438,97.1406 73.2656,96.7031 Q73.5313,96.4375 73.6719,96.3594 Q73.8281,96.2813 74.0313,96.2813 Q74.3594,96.2813 74.6094,96.5469 Q74.875,96.7969 74.875,97.1406 Q74.875,97.4844 74.5313,97.8906 Q74.0313,98.4688 73.2344,98.7969 Q72.1563,99.25 70.8594,99.25 Q69.3438,99.25 68.1406,98.625 Q67.1563,98.125 66.4688,97.0625 Q65.7813,95.9844 65.7813,94.7031 L65.7813,93.5469 Q65.7813,92.2188 66.3906,91.0781 Q67.0156,89.9219 68.1094,89.3125 Q69.2031,88.6875 70.4375,88.6875 Q71.1719,88.6875 71.8125,88.8594 Q72.4688,89.0156 73.0156,89.375 Z " fill="#000000"/><text fill="#000000" font-family="sans-serif" font-size="14" lengthAdjust="spacing" textLength="59" x="90.75" y="99.2285">Municipio</text><line style="stroke:#181818;stroke-width:0.5;" x1="8" x2="200" y1="109.5" y2="109.5"/><text fill="#000000" font-family="sans-serif" font-size="14" lengthAdjust="spacing" textLength="61" x="13" y="128.0332">int codigo</text><text fill="#000000" font-family="sans-serif" font-size="14" lengthAdjust="spacing" textLength="89" x="13" y="145.6426">String nombre</text><text fill="#000000" font-family="sans-serif" font-size="14" lengthAdjust="spacing" textLength="182" x="13" y="163.252">Departamento departamento</text><line style="stroke:#181818;stroke-width:0.5;" x1="8" x2="200" y1="170.3281" y2="170.3281"/></g><!--MD5=[c68a4d4ab8967530748d0a41d206ebbd]
class Direccion--><g id="elem_Direccion"><rect codeLine="13" fill="#F1F1F1" height="188.875" id="Direccion" rx="2.5" ry="2.5" style="stroke:#181818;stroke-width:0.5;" width="134" x="236" y="33.5"/><ellipse cx="270.35" cy="49.5" fill="#ADD1B2" rx="11" ry="11" style="stroke:#181818;stroke-width:1.0;"/><path d="M273.1156,45.375 Q273.2719,45.1563 273.4594,45.0469 Q273.6469,44.9375 273.8656,44.9375 Q274.2406,44.9375 274.475,45.2031 Q274.7094,45.4531 274.7094,46.0625 L274.7094,47.5156 Q274.7094,48.125 274.475,48.3906 Q274.2406,48.6563 273.8656,48.6563 Q273.5219,48.6563 273.3188,48.4531 Q273.1156,48.2656 273.0063,47.75 Q272.9594,47.3906 272.7719,47.2031 Q272.4438,46.8281 271.8344,46.6094 Q271.225,46.3906 270.6,46.3906 Q269.8344,46.3906 269.1938,46.7188 Q268.5688,47.0469 268.0688,47.7969 Q267.5844,48.5469 267.5844,49.5781 L267.5844,50.6719 Q267.5844,51.9063 268.475,52.7344 Q269.3656,53.5469 270.9594,53.5469 Q271.8969,53.5469 272.5531,53.2969 Q272.9438,53.1406 273.3656,52.7031 Q273.6313,52.4375 273.7719,52.3594 Q273.9281,52.2813 274.1313,52.2813 Q274.4594,52.2813 274.7094,52.5469 Q274.975,52.7969 274.975,53.1406 Q274.975,53.4844 274.6313,53.8906 Q274.1313,54.4688 273.3344,54.7969 Q272.2563,55.25 270.9594,55.25 Q269.4438,55.25 268.2406,54.625 Q267.2563,54.125 266.5688,53.0625 Q265.8813,51.9844 265.8813,50.7031 L265.8813,49.5469 Q265.8813,48.2188 266.4906,47.0781 Q267.1156,45.9219 268.2094,45.3125 Q269.3031,44.6875 270.5375,44.6875 Q271.2719,44.6875 271.9125,44.8594 Q272.5688,45.0156 273.1156,45.375 Z " fill="#000000"/><text fill="#000000" font-family="sans-serif" font-size="14" lengthAdjust="spacing" textLength="59" x="288.65" y="55.2285">Direccion</text><line style="stroke:#181818;stroke-width:0.5;" x1="237" x2="369" y1="65.5" y2="65.5"/><text fill="#000000" font-family="sans-serif" font-size="14" lengthAdjust="spacing" textLength="61" x="242" y="84.0332">int codigo</text><text fill="#000000" font-family="sans-serif" font-size="14" lengthAdjust="spacing" textLength="81" x="242" y="101.6426">float longitud</text><text fill="#000000" font-family="sans-serif" font-size="14" lengthAdjust="spacing" textLength="69" x="242" y="119.252">float latitud</text><text fill="#000000" font-family="sans-serif" font-size="14" lengthAdjust="spacing" textLength="49" x="242" y="136.8613">int zona</text><text fill="#000000" font-family="sans-serif" font-size="14" lengthAdjust="spacing" textLength="48" x="242" y="154.4707">int calle</text><text fill="#000000" font-family="sans-serif" font-size="14" lengthAdjust="spacing" textLength="69" x="242" y="172.0801">int avenida</text><text fill="#000000" font-family="sans-serif" font-size="14" lengthAdjust="spacing" textLength="49" x="242" y="189.6895">int casa</text><text fill="#000000" font-family="sans-serif" font-size="14" lengthAdjust="spacing" textLength="122" x="242" y="207.2988">Municipio municipio</text><line style="stroke:#181818;stroke-width:0.5;" x1="237" x2="369" y1="214.375" y2="214.375"/></g><!--MD5=[9b7137e4fa784c4d7a13ee4532eda879]
class CentroDeVotacion--><g id="elem_CentroDeVotacion"><rect codeLine="24" fill="#F1F1F1" height="100.8281" id="CentroDeVotacion" rx="2.5" ry="2.5" style="stroke:#181818;stroke-width:0.5;" width="148" x="232" y="309"/><ellipse cx="247" cy="325" fill="#ADD1B2" rx="11" ry="11" style="stroke:#181818;stroke-width:1.0;"/><path d="M249.7656,320.875 Q249.9219,320.6563 250.1094,320.5469 Q250.2969,320.4375 250.5156,320.4375 Q250.8906,320.4375 251.125,320.7031 Q251.3594,320.9531 251.3594,321.5625 L251.3594,323.0156 Q251.3594,323.625 251.125,323.8906 Q250.8906,324.1563 250.5156,324.1563 Q250.1719,324.1563 249.9688,323.9531 Q249.7656,323.7656 249.6563,323.25 Q249.6094,322.8906 249.4219,322.7031 Q249.0938,322.3281 248.4844,322.1094 Q247.875,321.8906 247.25,321.8906 Q246.4844,321.8906 245.8438,322.2188 Q245.2188,322.5469 244.7188,323.2969 Q244.2344,324.0469 244.2344,325.0781 L244.2344,326.1719 Q244.2344,327.4063 245.125,328.2344 Q246.0156,329.0469 247.6094,329.0469 Q248.5469,329.0469 249.2031,328.7969 Q249.5938,328.6406 250.0156,328.2031 Q250.2813,327.9375 250.4219,327.8594 Q250.5781,327.7813 250.7813,327.7813 Q251.1094,327.7813 251.3594,328.0469 Q251.625,328.2969 251.625,328.6406 Q251.625,328.9844 251.2813,329.3906 Q250.7813,329.9688 249.9844,330.2969 Q248.9063,330.75 247.6094,330.75 Q246.0938,330.75 244.8906,330.125 Q243.9063,329.625 243.2188,328.5625 Q242.5313,327.4844 242.5313,326.2031 L242.5313,325.0469 Q242.5313,323.7188 243.1406,322.5781 Q243.7656,321.4219 244.8594,320.8125 Q245.9531,320.1875 247.1875,320.1875 Q247.9219,320.1875 248.5625,320.3594 Q249.2188,320.5156 249.7656,320.875 Z " fill="#000000"/><text fill="#000000" font-family="sans-serif" font-size="14" lengthAdjust="spacing" textLength="116" x="261" y="330.7285">CentroDeVotacion</text><line style="stroke:#181818;stroke-width:0.5;" x1="233" x2="379" y1="341" y2="341"/><text fill="#000000" font-family="sans-serif" font-size="14" lengthAdjust="spacing" textLength="61" x="238" y="359.5332">int codigo</text><text fill="#000000" font-family="sans-serif" font-size="14" lengthAdjust="spacing" textLength="89" x="238" y="377.1426">String nombre</text><text fill="#000000" font-family="sans-serif" font-size="14" lengthAdjust="spacing" textLength="120" x="238" y="394.752">Direccion direccion</text><line style="stroke:#181818;stroke-width:0.5;" x1="233" x2="379" y1="401.8281" y2="401.8281"/></g><!--MD5=[e5925cd15ccd4863e9dc4bc9e690e485]
class Mesa--><g id="elem_Mesa"><rect codeLine="30" fill="#F1F1F1" height="83.2188" id="Mesa" rx="2.5" ry="2.5" style="stroke:#181818;stroke-width:0.5;" width="245" x="208.5" y="470"/><ellipse cx="309.75" cy="486" fill="#ADD1B2" rx="11" ry="11" style="stroke:#181818;stroke-width:1.0;"/><path d="M312.5156,481.875 Q312.6719,481.6563 312.8594,481.5469 Q313.0469,481.4375 313.2656,481.4375 Q313.6406,481.4375 313.875,481.7031 Q314.1094,481.9531 314.1094,482.5625 L314.1094,484.0156 Q314.1094,484.625 313.875,484.8906 Q313.6406,485.1563 313.2656,485.1563 Q312.9219,485.1563 312.7188,484.9531 Q312.5156,484.7656 312.4063,484.25 Q312.3594,483.8906 312.1719,483.7031 Q311.8438,483.3281 311.2344,483.1094 Q310.625,482.8906 310,482.8906 Q309.2344,482.8906 308.5938,483.2188 Q307.9688,483.5469 307.4688,484.2969 Q306.9844,485.0469 306.9844,486.0781 L306.9844,487.1719 Q306.9844,488.4063 307.875,489.2344 Q308.7656,490.0469 310.3594,490.0469 Q311.2969,490.0469 311.9531,489.7969 Q312.3438,489.6406 312.7656,489.2031 Q313.0313,488.9375 313.1719,488.8594 Q313.3281,488.7813 313.5313,488.7813 Q313.8594,488.7813 314.1094,489.0469 Q314.375,489.2969 314.375,489.6406 Q314.375,489.9844 314.0313,490.3906 Q313.5313,490.9688 312.7344,491.2969 Q311.6563,491.75 310.3594,491.75 Q308.8438,491.75 307.6406,491.125 Q306.6563,490.625 305.9688,489.5625 Q305.2813,488.4844 305.2813,487.2031 L305.2813,486.0469 Q305.2813,484.7188 305.8906,483.5781 Q306.5156,482.4219 307.6094,481.8125 Q308.7031,481.1875 309.9375,481.1875 Q310.6719,481.1875 311.3125,481.3594 Q311.9688,481.5156 312.5156,481.875 Z " fill="#000000"/><text fill="#000000" font-family="sans-serif" font-size="14" lengthAdjust="spacing" textLength="34" x="330.25" y="491.7285">Mesa</text><line style="stroke:#181818;stroke-width:0.5;" x1="209.5" x2="452.5" y1="502" y2="502"/><text fill="#000000" font-family="sans-serif" font-size="14" lengthAdjust="spacing" textLength="61" x="214.5" y="520.5332">int codigo</text><text fill="#000000" font-family="sans-serif" font-size="14" lengthAdjust="spacing" textLength="233" x="214.5" y="538.1426">CentroDeVotacion centroDeVotacion</text><line style="stroke:#181818;stroke-width:0.5;" x1="209.5" x2="452.5" y1="545.2188" y2="545.2188"/></g><!--MD5=[a48731e35e4efcfa96e52c126b9a7dad]
class Libro--><g id="elem_Libro"><rect codeLine="35" fill="#F1F1F1" height="83.2188" id="Libro" rx="2.5" ry="2.5" style="stroke:#181818;stroke-width:0.5;" width="84" x="502" y="470"/><ellipse cx="526" cy="486" fill="#ADD1B2" rx="11" ry="11" style="stroke:#181818;stroke-width:1.0;"/><path d="M528.7656,481.875 Q528.9219,481.6563 529.1094,481.5469 Q529.2969,481.4375 529.5156,481.4375 Q529.8906,481.4375 530.125,481.7031 Q530.3594,481.9531 530.3594,482.5625 L530.3594,484.0156 Q530.3594,484.625 530.125,484.8906 Q529.8906,485.1563 529.5156,485.1563 Q529.1719,485.1563 528.9688,484.9531 Q528.7656,484.7656 528.6563,484.25 Q528.6094,483.8906 528.4219,483.7031 Q528.0938,483.3281 527.4844,483.1094 Q526.875,482.8906 526.25,482.8906 Q525.4844,482.8906 524.8438,483.2188 Q524.2188,483.5469 523.7188,484.2969 Q523.2344,485.0469 523.2344,486.0781 L523.2344,487.1719 Q523.2344,488.4063 524.125,489.2344 Q525.0156,490.0469 526.6094,490.0469 Q527.5469,490.0469 528.2031,489.7969 Q528.5938,489.6406 529.0156,489.2031 Q529.2813,488.9375 529.4219,488.8594 Q529.5781,488.7813 529.7813,488.7813 Q530.1094,488.7813 530.3594,489.0469 Q530.625,489.2969 530.625,489.6406 Q530.625,489.9844 530.2813,490.3906 Q529.7813,490.9688 528.9844,491.2969 Q527.9063,491.75 526.6094,491.75 Q525.0938,491.75 523.8906,491.125 Q522.9063,490.625 522.2188,489.5625 Q521.5313,488.4844 521.5313,487.2031 L521.5313,486.0469 Q521.5313,484.7188 522.1406,483.5781 Q522.7656,482.4219 523.8594,481.8125 Q524.9531,481.1875 526.1875,481.1875 Q526.9219,481.1875 527.5625,481.3594 Q528.2188,481.5156 528.7656,481.875 Z " fill="#000000"/><text fill="#000000" font-family="sans-serif" font-size="14" lengthAdjust="spacing" textLength="32" x="542" y="491.7285">Libro</text><line style="stroke:#181818;stroke-width:0.5;" x1="503" x2="585" y1="502" y2="502"/><text fill="#000000" font-family="sans-serif" font-size="14" lengthAdjust="spacing" textLength="61" x="508" y="520.5332">int codigo</text><text fill="#000000" font-family="sans-serif" font-size="14" lengthAdjust="spacing" textLength="72" x="508" y="538.1426">Mesa mesa</text><line style="stroke:#181818;stroke-width:0.5;" x1="503" x2="585" y1="545.2188" y2="545.2188"/></g><!--MD5=[ef298d0419673b6c7dffaf46d57dd2c5]
class Hoja--><g id="elem_Hoja"><rect codeLine="40" fill="#F1F1F1" height="83.2188" id="Hoja" rx="2.5" ry="2.5" style="stroke:#181818;stroke-width:0.5;" width="75" x="627.5" y="470"/><ellipse cx="649.25" cy="486" fill="#ADD1B2" rx="11" ry="11" style="stroke:#181818;stroke-width:1.0;"/><path d="M652.0156,481.875 Q652.1719,481.6563 652.3594,481.5469 Q652.5469,481.4375 652.7656,481.4375 Q653.1406,481.4375 653.375,481.7031 Q653.6094,481.9531 653.6094,482.5625 L653.6094,484.0156 Q653.6094,484.625 653.375,484.8906 Q653.1406,485.1563 652.7656,485.1563 Q652.4219,485.1563 652.2188,484.9531 Q652.0156,484.7656 651.9063,484.25 Q651.8594,483.8906 651.6719,483.7031 Q651.3438,483.3281 650.7344,483.1094 Q650.125,482.8906 649.5,482.8906 Q648.7344,482.8906 648.0938,483.2188 Q647.4688,483.5469 646.9688,484.2969 Q646.4844,485.0469 646.4844,486.0781 L646.4844,487.1719 Q646.4844,488.4063 647.375,489.2344 Q648.2656,490.0469 649.8594,490.0469 Q650.7969,490.0469 651.4531,489.7969 Q651.8438,489.6406 652.2656,489.2031 Q652.5313,488.9375 652.6719,488.8594 Q652.8281,488.7813 653.0313,488.7813 Q653.3594,488.7813 653.6094,489.0469 Q653.875,489.2969 653.875,489.6406 Q653.875,489.9844 653.5313,490.3906 Q653.0313,490.9688 652.2344,491.2969 Q651.1563,491.75 649.8594,491.75 Q648.3438,491.75 647.1406,491.125 Q646.1563,490.625 645.4688,489.5625 Q644.7813,488.4844 644.7813,487.2031 L644.7813,486.0469 Q644.7813,484.7188 645.3906,483.5781 Q646.0156,482.4219 647.1094,481.8125 Q648.2031,481.1875 649.4375,481.1875 Q650.1719,481.1875 650.8125,481.3594 Q651.4688,481.5156 652.0156,481.875 Z " fill="#000000"/><text fill="#000000" font-family="sans-serif" font-size="14" lengthAdjust="spacing" textLength="28" x="664.75" y="491.7285">Hoja</text><line style="stroke:#181818;stroke-width:0.5;" x1="628.5" x2="701.5" y1="502" y2="502"/><text fill="#000000" font-family="sans-serif" font-size="14" lengthAdjust="spacing" textLength="61" x="633.5" y="520.5332">int codigo</text><text fill="#000000" font-family="sans-serif" font-size="14" lengthAdjust="spacing" textLength="63" x="633.5" y="538.1426">Libro libro</text><line style="stroke:#181818;stroke-width:0.5;" x1="628.5" x2="701.5" y1="545.2188" y2="545.2188"/></g><!--MD5=[d268c9743e7e3d4370f6e2c0ab4de596]
class Linea--><g id="elem_Linea"><rect codeLine="45" fill="#F1F1F1" height="83.2188" id="Linea" rx="2.5" ry="2.5" style="stroke:#181818;stroke-width:0.5;" width="73" x="630.5" y="318"/><ellipse cx="648.2" cy="334" fill="#ADD1B2" rx="11" ry="11" style="stroke:#181818;stroke-width:1.0;"/><path d="M650.9656,329.875 Q651.1219,329.6563 651.3094,329.5469 Q651.4969,329.4375 651.7156,329.4375 Q652.0906,329.4375 652.325,329.7031 Q652.5594,329.9531 652.5594,330.5625 L652.5594,332.0156 Q652.5594,332.625 652.325,332.8906 Q652.0906,333.1563 651.7156,333.1563 Q651.3719,333.1563 651.1688,332.9531 Q650.9656,332.7656 650.8563,332.25 Q650.8094,331.8906 650.6219,331.7031 Q650.2938,331.3281 649.6844,331.1094 Q649.075,330.8906 648.45,330.8906 Q647.6844,330.8906 647.0438,331.2188 Q646.4188,331.5469 645.9188,332.2969 Q645.4344,333.0469 645.4344,334.0781 L645.4344,335.1719 Q645.4344,336.4063 646.325,337.2344 Q647.2156,338.0469 648.8094,338.0469 Q649.7469,338.0469 650.4031,337.7969 Q650.7938,337.6406 651.2156,337.2031 Q651.4813,336.9375 651.6219,336.8594 Q651.7781,336.7813 651.9813,336.7813 Q652.3094,336.7813 652.5594,337.0469 Q652.825,337.2969 652.825,337.6406 Q652.825,337.9844 652.4813,338.3906 Q651.9813,338.9688 651.1844,339.2969 Q650.1063,339.75 648.8094,339.75 Q647.2938,339.75 646.0906,339.125 Q645.1063,338.625 644.4188,337.5625 Q643.7313,336.4844 643.7313,335.2031 L643.7313,334.0469 Q643.7313,332.7188 644.3406,331.5781 Q644.9656,330.4219 646.0594,329.8125 Q647.1531,329.1875 648.3875,329.1875 Q649.1219,329.1875 649.7625,329.3594 Q650.4188,329.5156 650.9656,329.875 Z " fill="#000000"/><text fill="#000000" font-family="sans-serif" font-size="14" lengthAdjust="spacing" textLength="35" x="662.8" y="339.7285">Linea</text><line style="stroke:#181818;stroke-width:0.5;" x1="631.5" x2="702.5" y1="350" y2="350"/><text fill="#000000" font-family="sans-serif" font-size="14" lengthAdjust="spacing" textLength="61" x="636.5" y="368.5332">int codigo</text><text fill="#000000" font-family="sans-serif" font-size="14" lengthAdjust="spacing" textLength="59" x="636.5" y="386.1426">Hoja hoja</text><line style="stroke:#181818;stroke-width:0.5;" x1="631.5" x2="702.5" y1="393.2188" y2="393.2188"/></g><!--MD5=[8f63dadf5c643e74a34e53c8f0a15d23]
class Persona--><g id="elem_Persona"><rect codeLine="50" fill="#F1F1F1" height="241.7031" id="Persona" rx="2.5" ry="2.5" style="stroke:#181818;stroke-width:0.5;" width="168" x="405" y="7"/><ellipse cx="458.25" cy="23" fill="#ADD1B2" rx="11" ry="11" style="stroke:#181818;stroke-width:1.0;"/><path d="M461.0156,18.875 Q461.1719,18.6563 461.3594,18.5469 Q461.5469,18.4375 461.7656,18.4375 Q462.1406,18.4375 462.375,18.7031 Q462.6094,18.9531 462.6094,19.5625 L462.6094,21.0156 Q462.6094,21.625 462.375,21.8906 Q462.1406,22.1563 461.7656,22.1563 Q461.4219,22.1563 461.2188,21.9531 Q461.0156,21.7656 460.9063,21.25 Q460.8594,20.8906 460.6719,20.7031 Q460.3438,20.3281 459.7344,20.1094 Q459.125,19.8906 458.5,19.8906 Q457.7344,19.8906 457.0938,20.2188 Q456.4688,20.5469 455.9688,21.2969 Q455.4844,22.0469 455.4844,23.0781 L455.4844,24.1719 Q455.4844,25.4063 456.375,26.2344 Q457.2656,27.0469 458.8594,27.0469 Q459.7969,27.0469 460.4531,26.7969 Q460.8438,26.6406 461.2656,26.2031 Q461.5313,25.9375 461.6719,25.8594 Q461.8281,25.7813 462.0313,25.7813 Q462.3594,25.7813 462.6094,26.0469 Q462.875,26.2969 462.875,26.6406 Q462.875,26.9844 462.5313,27.3906 Q462.0313,27.9688 461.2344,28.2969 Q460.1563,28.75 458.8594,28.75 Q457.3438,28.75 456.1406,28.125 Q455.1563,27.625 454.4688,26.5625 Q453.7813,25.4844 453.7813,24.2031 L453.7813,23.0469 Q453.7813,21.7188 454.3906,20.5781 Q455.0156,19.4219 456.1094,18.8125 Q457.2031,18.1875 458.4375,18.1875 Q459.1719,18.1875 459.8125,18.3594 Q460.4688,18.5156 461.0156,18.875 Z " fill="#000000"/><text fill="#000000" font-family="sans-serif" font-size="14" lengthAdjust="spacing" textLength="53" x="478.75" y="28.7285">Persona</text><line style="stroke:#181818;stroke-width:0.5;" x1="406" x2="572" y1="39" y2="39"/><text fill="#000000" font-family="sans-serif" font-size="14" lengthAdjust="spacing" textLength="61" x="411" y="57.5332">int codigo</text><text fill="#000000" font-family="sans-serif" font-size="14" lengthAdjust="spacing" textLength="60" x="411" y="75.1426">String dpi</text><text fill="#000000" font-family="sans-serif" font-size="14" lengthAdjust="spacing" textLength="86" x="411" y="92.752">String padron</text><text fill="#000000" font-family="sans-serif" font-size="14" lengthAdjust="spacing" textLength="97" x="411" y="110.3613">String nombre1</text><text fill="#000000" font-family="sans-serif" font-size="14" lengthAdjust="spacing" textLength="97" x="411" y="127.9707">String nombre2</text><text fill="#000000" font-family="sans-serif" font-size="14" lengthAdjust="spacing" textLength="98" x="411" y="145.5801">String apellido1</text><text fill="#000000" font-family="sans-serif" font-size="14" lengthAdjust="spacing" textLength="98" x="411" y="163.1895">String apellido2</text><text fill="#000000" font-family="sans-serif" font-size="14" lengthAdjust="spacing" textLength="65" x="411" y="180.7988">String foto</text><text fill="#000000" font-family="sans-serif" font-size="14" lengthAdjust="spacing" textLength="72" x="411" y="198.4082">String firma</text><text fill="#000000" font-family="sans-serif" font-size="14" lengthAdjust="spacing" textLength="156" x="411" y="216.0176">Date fechaDeNacimiento</text><text fill="#000000" font-family="sans-serif" font-size="14" lengthAdjust="spacing" textLength="120" x="411" y="233.627">Direccion direccion</text><line style="stroke:#181818;stroke-width:0.5;" x1="406" x2="572" y1="240.7031" y2="240.7031"/></g><!--MD5=[a3971b1b10996f48bdf676aa42542461]
class Firma--><g id="elem_Firma"><rect codeLine="64" fill="#F1F1F1" height="83.2188" id="Firma" rx="2.5" ry="2.5" style="stroke:#181818;stroke-width:0.5;" width="121" x="608.5" y="86.5"/><ellipse cx="647.35" cy="102.5" fill="#ADD1B2" rx="11" ry="11" style="stroke:#181818;stroke-width:1.0;"/><path d="M650.1156,98.375 Q650.2719,98.1563 650.4594,98.0469 Q650.6469,97.9375 650.8656,97.9375 Q651.2406,97.9375 651.475,98.2031 Q651.7094,98.4531 651.7094,99.0625 L651.7094,100.5156 Q651.7094,101.125 651.475,101.3906 Q651.2406,101.6563 650.8656,101.6563 Q650.5219,101.6563 650.3188,101.4531 Q650.1156,101.2656 650.0063,100.75 Q649.9594,100.3906 649.7719,100.2031 Q649.4438,99.8281 648.8344,99.6094 Q648.225,99.3906 647.6,99.3906 Q646.8344,99.3906 646.1938,99.7188 Q645.5688,100.0469 645.0688,100.7969 Q644.5844,101.5469 644.5844,102.5781 L644.5844,103.6719 Q644.5844,104.9063 645.475,105.7344 Q646.3656,106.5469 647.9594,106.5469 Q648.8969,106.5469 649.5531,106.2969 Q649.9438,106.1406 650.3656,105.7031 Q650.6313,105.4375 650.7719,105.3594 Q650.9281,105.2813 651.1313,105.2813 Q651.4594,105.2813 651.7094,105.5469 Q651.975,105.7969 651.975,106.1406 Q651.975,106.4844 651.6313,106.8906 Q651.1313,107.4688 650.3344,107.7969 Q649.2563,108.25 647.9594,108.25 Q646.4438,108.25 645.2406,107.625 Q644.2563,107.125 643.5688,106.0625 Q642.8813,104.9844 642.8813,103.7031 L642.8813,102.5469 Q642.8813,101.2188 643.4906,100.0781 Q644.1156,98.9219 645.2094,98.3125 Q646.3031,97.6875 647.5375,97.6875 Q648.2719,97.6875 648.9125,97.8594 Q649.5688,98.0156 650.1156,98.375 Z " fill="#000000"/><text fill="#000000" font-family="sans-serif" font-size="14" lengthAdjust="spacing" textLength="36" x="666.65" y="108.2285">Firma</text><line style="stroke:#181818;stroke-width:0.5;" x1="609.5" x2="728.5" y1="118.5" y2="118.5"/><text fill="#000000" font-family="sans-serif" font-size="14" lengthAdjust="spacing" textLength="109" x="614.5" y="137.0332">Persona persona</text><text fill="#000000" font-family="sans-serif" font-size="14" lengthAdjust="spacing" textLength="69" x="614.5" y="154.6426">Linea linea</text><line style="stroke:#181818;stroke-width:0.5;" x1="609.5" x2="728.5" y1="161.7188" y2="161.7188"/></g><!--MD5=[66ea30d188a585b0c794341fef07a062]
link Direccion to Persona--><g id="link_Direccion_Persona"><path codeLine="69" d="M370.21,128 C377.27,128 384.34,128 391.4,128 " fill="none" id="Direccion-to-Persona" style="stroke:#181818;stroke-width:1.0;"/><polygon fill="#181818" points="404.55,128,398.55,124,392.55,128,398.55,132,404.55,128" style="stroke:#181818;stroke-width:1.0;"/></g><!--MD5=[63c12f1da78dc491c54331bc2d5fc6b2]
reverse link Firma to Linea--><g id="link_Firma_Linea"><path codeLine="70" d="M668.53,182.6 C668.17,223.84 667.68,279.97 667.36,317.63 " fill="none" id="Firma-backto-Linea" style="stroke:#181818;stroke-width:1.0;"/><polygon fill="#181818" points="668.65,169.5,664.5974,175.4646,668.5445,181.4995,672.5971,175.5349,668.65,169.5" style="stroke:#181818;stroke-width:1.0;"/></g><!--MD5=[bbfa3e1fabe453a4302a748a1999c37c]
link Persona to Firma--><g id="link_Persona_Firma"><path codeLine="71" d="M573.02,128 C580.37,128 587.71,128 595.05,128 " fill="none" id="Persona-to-Firma" style="stroke:#181818;stroke-width:1.0;"/><polygon fill="#181818" points="608.26,128,602.26,124,596.26,128,602.26,132,608.26,128" style="stroke:#181818;stroke-width:1.0;"/></g><!--MD5=[42ffd2bbdb1763098af9501a14f100a0]
reverse link Linea to Hoja--><g id="link_Linea_Hoja"><path codeLine="72" d="M666.28,414.34 C666.04,432.64 665.77,452.78 665.54,469.88 " fill="none" id="Linea-backto-Hoja" style="stroke:#181818;stroke-width:1.0;"/><polygon fill="#181818" points="666.46,401.09,662.3811,407.0367,666.3016,413.089,670.3805,407.1423,666.46,401.09" style="stroke:#181818;stroke-width:1.0;"/></g><!--MD5=[210bd6d4499da5aabfaae1f15bd879b7]
link Libro to Hoja--><g id="link_Libro_Hoja"><path codeLine="73" d="M586.07,511.5 C595.43,511.5 604.79,511.5 614.15,511.5 " fill="none" id="Libro-to-Hoja" style="stroke:#181818;stroke-width:1.0;"/><polygon fill="#181818" points="627.38,511.5,621.38,507.5,615.38,511.5,621.38,515.5,627.38,511.5" style="stroke:#181818;stroke-width:1.0;"/></g><!--MD5=[8c7bdb8e2ece1fd4325d726b6364df96]
link Mesa to Libro--><g id="link_Mesa_Libro"><path codeLine="74" d="M453.72,511.5 C465.34,511.5 476.95,511.5 488.57,511.5 " fill="none" id="Mesa-to-Libro" style="stroke:#181818;stroke-width:1.0;"/><polygon fill="#181818" points="501.68,511.5,495.68,507.5,489.68,511.5,495.68,515.5,501.68,511.5" style="stroke:#181818;stroke-width:1.0;"/></g><!--MD5=[23ae5931b66f5aa14745264fa2cbf386]
link CentroDeVotacion to Mesa--><g id="link_CentroDeVotacion_Mesa"><path codeLine="75" d="M314.26,410.03 C316.74,424.95 319.48,441.39 322.01,456.58 " fill="none" id="CentroDeVotacion-to-Mesa" style="stroke:#181818;stroke-width:1.0;"/><polygon fill="#181818" points="324.17,469.53,327.1327,462.9556,322.2036,457.6922,319.2409,464.2666,324.17,469.53" style="stroke:#181818;stroke-width:1.0;"/></g><!--MD5=[1d6d99bea5540f193132526a1772fe10]
link Direccion to CentroDeVotacion--><g id="link_Direccion_CentroDeVotacion"><path codeLine="76" d="M304.22,222.68 C304.55,247.22 304.88,273.1 305.18,295.6 " fill="none" id="Direccion-to-CentroDeVotacion" style="stroke:#181818;stroke-width:1.0;"/><polygon fill="#181818" points="305.35,308.78,309.2705,302.7278,305.1918,296.781,301.2712,302.8333,305.35,308.78" style="stroke:#181818;stroke-width:1.0;"/></g><!--MD5=[8a1b482a0cc85da215883e47ddf93c5c]
link Municipio to Direccion--><g id="link_Municipio_Direccion"><path codeLine="77" d="M201.17,128 C208.29,128 215.41,128 222.53,128 " fill="none" id="Municipio-to-Direccion" style="stroke:#181818;stroke-width:1.0;"/><polygon fill="#181818" points="235.77,128,229.77,124,223.77,128,229.77,132,235.77,128" style="stroke:#181818;stroke-width:1.0;"/></g><!--MD5=[00856e456bcd9567b42355f9bdcc1081]
reverse link Municipio to Departamento--><g id="link_Municipio_Departamento"><path codeLine="78" d="M104,191.69 C104,231.89 104,282.91 104,317.87 " fill="none" id="Municipio-backto-Departamento" style="stroke:#181818;stroke-width:1.0;"/><polygon fill="#181818" points="104,178.52,100,184.52,104,190.52,108,184.52,104,178.52" style="stroke:#181818;stroke-width:1.0;"/></g><!--MD5=[0c19cc52103e245b68b8dcf724fb1383]
@startuml Modelo de Datos

    class Departamento {
        int codigo
        String nombre
    }

    class Municipio {
        int codigo
        String nombre
        Departamento departamento
    }

    class Direccion {
        int codigo
        float longitud
        float latitud
        int zona
        int calle
        int avenida
        int casa
        Municipio municipio
    }

    class CentroDeVotacion {
        int codigo
        String nombre
        Direccion direccion
    }

    class Mesa {
        int codigo
        CentroDeVotacion centroDeVotacion
    }

    class Libro {
        int codigo
        Mesa mesa
    }

    class Hoja {
        int codigo
        Libro libro
    }

    class Linea {
        int codigo
        Hoja hoja
    }

    class Persona {
        int codigo
        String dpi
        String padron
        String nombre1
        String nombre2
        String apellido1
        String apellido2
        String foto
        String firma
        Date fechaDeNacimiento
        Direccion direccion
    }

    class Firma {
        Persona persona
        Linea linea
    }

    Persona *-left- Direccion
    Firma *- - Linea
    Firma *-left- Persona
    Linea *- - Hoja
    Hoja *-left- Libro
    Libro *-left- Mesa
    Mesa *-left- CentroDeVotacion
    CentroDeVotacion *-up- Direccion
    Direccion *-left- Municipio
    Municipio *- - Departamento

@enduml

PlantUML version 1.2022.7(Mon Aug 22 11:01:30 CST 2022)
(GPL source distribution)
Java Runtime: Java(TM) SE Runtime Environment
JVM: Java HotSpot(TM) 64-Bit Server VM
Default Encoding: Cp1252
Language: en
Country: US
--></g></svg>