<?xml version="1.0" encoding="UTF-8" standalone="no"?><svg xmlns="http://www.w3.org/2000/svg" xmlns:xlink="http://www.w3.org/1999/xlink" contentStyleType="text/css" height="576px" preserveAspectRatio="none" style="width:770px;height:576px;background:#FFFFFF;" version="1.1" viewBox="0 0 770 576" width="770px" zoomAndPan="magnify"><defs/><g><!--MD5=[672b2ff73d0170c31623eed8ccfd2ea5]
class Departamento--><g id="elem_Departamento"><rect codeLine="2" fill="#F1F1F1" height="83.2188" id="Departamento" rx="2.5" ry="2.5" style="stroke:#181818;stroke-width:0.5;" width="122" x="43" y="326"/><ellipse cx="58" cy="342" fill="#ADD1B2" rx="11" ry="11" style="stroke:#181818;stroke-width:1.0;"/><path d="M60.7656,337.875 Q60.9219,337.6563 61.1094,337.5469 Q61.2969,337.4375 61.5156,337.4375 Q61.8906,337.4375 62.125,337.7031 Q62.3594,337.9531 62.3594,338.5625 L62.3594,340.0156 Q62.3594,340.625 62.125,340.8906 Q61.8906,341.1563 61.5156,341.1563 Q61.1719,341.1563 60.9688,340.9531 Q60.7656,340.7656 60.6563,340.25 Q60.6094,339.8906 60.4219,339.7031 Q60.0938,339.3281 59.4844,339.1094 Q58.875,338.8906 58.25,338.8906 Q57.4844,338.8906 56.8438,339.2188 Q56.2188,339.5469 55.7188,340.2969 Q55.2344,341.0469 55.2344,342.0781 L55.2344,343.1719 Q55.2344,344.4063 56.125,345.2344 Q57.0156,346.0469 58.6094,346.0469 Q59.5469,346.0469 60.2031,345.7969 Q60.5938,345.6406 61.0156,345.2031 Q61.2813,344.9375 61.4219,344.8594 Q61.5781,344.7813 61.7813,344.7813 Q62.1094,344.7813 62.3594,345.0469 Q62.625,345.2969 62.625,345.6406 Q62.625,345.9844 62.2813,346.3906 Q61.7813,346.9688 60.9844,347.2969 Q59.9063,347.75 58.6094,347.75 Q57.0938,347.75 55.8906,347.125 Q54.9063,346.625 54.2188,345.5625 Q53.5313,344.4844 53.5313,343.2031 L53.5313,342.0469 Q53.5313,340.7188 54.1406,339.5781 Q54.7656,338.4219 55.8594,337.8125 Q56.9531,337.1875 58.1875,337.1875 Q58.9219,337.1875 59.5625,337.3594 Q60.2188,337.5156 60.7656,337.875 Z " fill="#000000"/><text fill="#000000" font-family="sans-serif" font-size="14" lengthAdjust="spacing" textLength="90" x="72" y="347.7285">Departamento</text><line style="stroke:#181818;stroke-width:0.5;" x1="44" x2="164" y1="358" y2="358"/><text fill="#000000" font-family="sans-serif" font-size="14" lengthAdjust="spacing" textLength="61" x="49" y="376.5332">int codigo</text><text fill="#000000" font-family="sans-serif" font-size="14" lengthAdjust="spacing" textLength="89" x="49" y="394.1426">String nombre</text><line style="stroke:#181818;stroke-width:0.5;" x1="44" x2="164" y1="401.2188" y2="401.2188"/></g><!--MD5=[4da02cefe03f5f283808fbbc965e8df2]
class Municipio--><g id="elem_Municipio"><rect codeLine="7" fill="#F1F1F1" height="100.8281" id="Municipio" rx="2.5" ry="2.5" style="stroke:#181818;stroke-width:0.5;" width="194" x="7" y="86"/><ellipse cx="70.25" cy="102" fill="#ADD1B2" rx="11" ry="11" style="stroke:#181818;stroke-width:1.0;"/><path d="M73.0156,97.875 Q73.1719,97.6563 73.3594,97.5469 Q73.5469,97.4375 73.7656,97.4375 Q74.1406,97.4375 74.375,97.7031 Q74.6094,97.9531 74.6094,98.5625 L74.6094,100.0156 Q74.6094,100.625 74.375,100.8906 Q74.1406,101.1563 73.7656,101.1563 Q73.4219,101.1563 73.2188,100.9531 Q73.0156,100.7656 72.9063,100.25 Q72.8594,99.8906 72.6719,99.7031 Q72.3438,99.3281 71.7344,99.1094 Q71.125,98.8906 70.5,98.8906 Q69.7344,98.8906 69.0938,99.2188 Q68.4688,99.5469 67.9688,100.2969 Q67.4844,101.0469 67.4844,102.0781 L67.4844,103.1719 Q67.4844,104.4063 68.375,105.2344 Q69.2656,106.0469 70.8594,106.0469 Q71.7969,106.0469 72.4531,105.7969 Q72.8438,105.6406 73.2656,105.2031 Q73.5313,104.9375 73.6719,104.8594 Q73.8281,104.7813 74.0313,104.7813 Q74.3594,104.7813 74.6094,105.0469 Q74.875,105.2969 74.875,105.6406 Q74.875,105.9844 74.5313,106.3906 Q74.0313,106.9688 73.2344,107.2969 Q72.1563,107.75 70.8594,107.75 Q69.3438,107.75 68.1406,107.125 Q67.1563,106.625 66.4688,105.5625 Q65.7813,104.4844 65.7813,103.2031 L65.7813,102.0469 Q65.7813,100.7188 66.3906,99.5781 Q67.0156,98.4219 68.1094,97.8125 Q69.2031,97.1875 70.4375,97.1875 Q71.1719,97.1875 71.8125,97.3594 Q72.4688,97.5156 73.0156,97.875 Z " fill="#000000"/><text fill="#000000" font-family="sans-serif" font-size="14" lengthAdjust="spacing" textLength="59" x="90.75" y="107.7285">Municipio</text><line style="stroke:#181818;stroke-width:0.5;" x1="8" x2="200" y1="118" y2="118"/><text fill="#000000" font-family="sans-serif" font-size="14" lengthAdjust="spacing" textLength="61" x="13" y="136.5332">int codigo</text><text fill="#000000" font-family="sans-serif" font-size="14" lengthAdjust="spacing" textLength="89" x="13" y="154.1426">String nombre</text><text fill="#000000" font-family="sans-serif" font-size="14" lengthAdjust="spacing" textLength="182" x="13" y="171.752">Departamento departamento</text><line style="stroke:#181818;stroke-width:0.5;" x1="8" x2="200" y1="178.8281" y2="178.8281"/></g><!--MD5=[c68a4d4ab8967530748d0a41d206ebbd]
class Direccion--><g id="elem_Direccion"><rect codeLine="13" fill="#F1F1F1" height="188.875" id="Direccion" rx="2.5" ry="2.5" style="stroke:#181818;stroke-width:0.5;" width="134" x="236" y="42"/><ellipse cx="270.35" cy="58" fill="#ADD1B2" rx="11" ry="11" style="stroke:#181818;stroke-width:1.0;"/><path d="M273.1156,53.875 Q273.2719,53.6563 273.4594,53.5469 Q273.6469,53.4375 273.8656,53.4375 Q274.2406,53.4375 274.475,53.7031 Q274.7094,53.9531 274.7094,54.5625 L274.7094,56.0156 Q274.7094,56.625 274.475,56.8906 Q274.2406,57.1563 273.8656,57.1563 Q273.5219,57.1563 273.3188,56.9531 Q273.1156,56.7656 273.0063,56.25 Q272.9594,55.8906 272.7719,55.7031 Q272.4438,55.3281 271.8344,55.1094 Q271.225,54.8906 270.6,54.8906 Q269.8344,54.8906 269.1938,55.2188 Q268.5688,55.5469 268.0688,56.2969 Q267.5844,57.0469 267.5844,58.0781 L267.5844,59.1719 Q267.5844,60.4063 268.475,61.2344 Q269.3656,62.0469 270.9594,62.0469 Q271.8969,62.0469 272.5531,61.7969 Q272.9438,61.6406 273.3656,61.2031 Q273.6313,60.9375 273.7719,60.8594 Q273.9281,60.7813 274.1313,60.7813 Q274.4594,60.7813 274.7094,61.0469 Q274.975,61.2969 274.975,61.6406 Q274.975,61.9844 274.6313,62.3906 Q274.1313,62.9688 273.3344,63.2969 Q272.2563,63.75 270.9594,63.75 Q269.4438,63.75 268.2406,63.125 Q267.2563,62.625 266.5688,61.5625 Q265.8813,60.4844 265.8813,59.2031 L265.8813,58.0469 Q265.8813,56.7188 266.4906,55.5781 Q267.1156,54.4219 268.2094,53.8125 Q269.3031,53.1875 270.5375,53.1875 Q271.2719,53.1875 271.9125,53.3594 Q272.5688,53.5156 273.1156,53.875 Z " fill="#000000"/><text fill="#000000" font-family="sans-serif" font-size="14" lengthAdjust="spacing" textLength="59" x="288.65" y="63.7285">Direccion</text><line style="stroke:#181818;stroke-width:0.5;" x1="237" x2="369" y1="74" y2="74"/><text fill="#000000" font-family="sans-serif" font-size="14" lengthAdjust="spacing" textLength="61" x="242" y="92.5332">int codigo</text><text fill="#000000" font-family="sans-serif" font-size="14" lengthAdjust="spacing" textLength="81" x="242" y="110.1426">float longitud</text><text fill="#000000" font-family="sans-serif" font-size="14" lengthAdjust="spacing" textLength="69" x="242" y="127.752">float latitud</text><text fill="#000000" font-family="sans-serif" font-size="14" lengthAdjust="spacing" textLength="49" x="242" y="145.3613">int zona</text><text fill="#000000" font-family="sans-serif" font-size="14" lengthAdjust="spacing" textLength="48" x="242" y="162.9707">int calle</text><text fill="#000000" font-family="sans-serif" font-size="14" lengthAdjust="spacing" textLength="69" x="242" y="180.5801">int avenida</text><text fill="#000000" font-family="sans-serif" font-size="14" lengthAdjust="spacing" textLength="49" x="242" y="198.1895">int casa</text><text fill="#000000" font-family="sans-serif" font-size="14" lengthAdjust="spacing" textLength="122" x="242" y="215.7988">Municipio municipio</text><line style="stroke:#181818;stroke-width:0.5;" x1="237" x2="369" y1="222.875" y2="222.875"/></g><!--MD5=[9b7137e4fa784c4d7a13ee4532eda879]
class CentroDeVotacion--><g id="elem_CentroDeVotacion"><rect codeLine="24" fill="#F1F1F1" height="100.8281" id="CentroDeVotacion" rx="2.5" ry="2.5" style="stroke:#181818;stroke-width:0.5;" width="148" x="215" y="469"/><ellipse cx="230" cy="485" fill="#ADD1B2" rx="11" ry="11" style="stroke:#181818;stroke-width:1.0;"/><path d="M232.7656,480.875 Q232.9219,480.6563 233.1094,480.5469 Q233.2969,480.4375 233.5156,480.4375 Q233.8906,480.4375 234.125,480.7031 Q234.3594,480.9531 234.3594,481.5625 L234.3594,483.0156 Q234.3594,483.625 234.125,483.8906 Q233.8906,484.1563 233.5156,484.1563 Q233.1719,484.1563 232.9688,483.9531 Q232.7656,483.7656 232.6563,483.25 Q232.6094,482.8906 232.4219,482.7031 Q232.0938,482.3281 231.4844,482.1094 Q230.875,481.8906 230.25,481.8906 Q229.4844,481.8906 228.8438,482.2188 Q228.2188,482.5469 227.7188,483.2969 Q227.2344,484.0469 227.2344,485.0781 L227.2344,486.1719 Q227.2344,487.4063 228.125,488.2344 Q229.0156,489.0469 230.6094,489.0469 Q231.5469,489.0469 232.2031,488.7969 Q232.5938,488.6406 233.0156,488.2031 Q233.2813,487.9375 233.4219,487.8594 Q233.5781,487.7813 233.7813,487.7813 Q234.1094,487.7813 234.3594,488.0469 Q234.625,488.2969 234.625,488.6406 Q234.625,488.9844 234.2813,489.3906 Q233.7813,489.9688 232.9844,490.2969 Q231.9063,490.75 230.6094,490.75 Q229.0938,490.75 227.8906,490.125 Q226.9063,489.625 226.2188,488.5625 Q225.5313,487.4844 225.5313,486.2031 L225.5313,485.0469 Q225.5313,483.7188 226.1406,482.5781 Q226.7656,481.4219 227.8594,480.8125 Q228.9531,480.1875 230.1875,480.1875 Q230.9219,480.1875 231.5625,480.3594 Q232.2188,480.5156 232.7656,480.875 Z " fill="#000000"/><text fill="#000000" font-family="sans-serif" font-size="14" lengthAdjust="spacing" textLength="116" x="244" y="490.7285">CentroDeVotacion</text><line style="stroke:#181818;stroke-width:0.5;" x1="216" x2="362" y1="501" y2="501"/><text fill="#000000" font-family="sans-serif" font-size="14" lengthAdjust="spacing" textLength="61" x="221" y="519.5332">int codigo</text><text fill="#000000" font-family="sans-serif" font-size="14" lengthAdjust="spacing" textLength="89" x="221" y="537.1426">String nombre</text><text fill="#000000" font-family="sans-serif" font-size="14" lengthAdjust="spacing" textLength="120" x="221" y="554.752">Direccion direccion</text><line style="stroke:#181818;stroke-width:0.5;" x1="216" x2="362" y1="561.8281" y2="561.8281"/></g><!--MD5=[e5925cd15ccd4863e9dc4bc9e690e485]
class Mesa--><g id="elem_Mesa"><rect codeLine="30" fill="#F1F1F1" height="83.2188" id="Mesa" rx="2.5" ry="2.5" style="stroke:#181818;stroke-width:0.5;" width="245" x="398.5" y="478"/><ellipse cx="499.75" cy="494" fill="#ADD1B2" rx="11" ry="11" style="stroke:#181818;stroke-width:1.0;"/><path d="M502.5156,489.875 Q502.6719,489.6563 502.8594,489.5469 Q503.0469,489.4375 503.2656,489.4375 Q503.6406,489.4375 503.875,489.7031 Q504.1094,489.9531 504.1094,490.5625 L504.1094,492.0156 Q504.1094,492.625 503.875,492.8906 Q503.6406,493.1563 503.2656,493.1563 Q502.9219,493.1563 502.7188,492.9531 Q502.5156,492.7656 502.4063,492.25 Q502.3594,491.8906 502.1719,491.7031 Q501.8438,491.3281 501.2344,491.1094 Q500.625,490.8906 500,490.8906 Q499.2344,490.8906 498.5938,491.2188 Q497.9688,491.5469 497.4688,492.2969 Q496.9844,493.0469 496.9844,494.0781 L496.9844,495.1719 Q496.9844,496.4063 497.875,497.2344 Q498.7656,498.0469 500.3594,498.0469 Q501.2969,498.0469 501.9531,497.7969 Q502.3438,497.6406 502.7656,497.2031 Q503.0313,496.9375 503.1719,496.8594 Q503.3281,496.7813 503.5313,496.7813 Q503.8594,496.7813 504.1094,497.0469 Q504.375,497.2969 504.375,497.6406 Q504.375,497.9844 504.0313,498.3906 Q503.5313,498.9688 502.7344,499.2969 Q501.6563,499.75 500.3594,499.75 Q498.8438,499.75 497.6406,499.125 Q496.6563,498.625 495.9688,497.5625 Q495.2813,496.4844 495.2813,495.2031 L495.2813,494.0469 Q495.2813,492.7188 495.8906,491.5781 Q496.5156,490.4219 497.6094,489.8125 Q498.7031,489.1875 499.9375,489.1875 Q500.6719,489.1875 501.3125,489.3594 Q501.9688,489.5156 502.5156,489.875 Z " fill="#000000"/><text fill="#000000" font-family="sans-serif" font-size="14" lengthAdjust="spacing" textLength="34" x="520.25" y="499.7285">Mesa</text><line style="stroke:#181818;stroke-width:0.5;" x1="399.5" x2="642.5" y1="510" y2="510"/><text fill="#000000" font-family="sans-serif" font-size="14" lengthAdjust="spacing" textLength="61" x="404.5" y="528.5332">int codigo</text><text fill="#000000" font-family="sans-serif" font-size="14" lengthAdjust="spacing" textLength="233" x="404.5" y="546.1426">CentroDeVotacion centroDeVotacion</text><line style="stroke:#181818;stroke-width:0.5;" x1="399.5" x2="642.5" y1="553.2188" y2="553.2188"/></g><!--MD5=[a48731e35e4efcfa96e52c126b9a7dad]
class Libro--><g id="elem_Libro"><rect codeLine="35" fill="#F1F1F1" height="83.2188" id="Libro" rx="2.5" ry="2.5" style="stroke:#181818;stroke-width:0.5;" width="84" x="679" y="478"/><ellipse cx="703" cy="494" fill="#ADD1B2" rx="11" ry="11" style="stroke:#181818;stroke-width:1.0;"/><path d="M705.7656,489.875 Q705.9219,489.6563 706.1094,489.5469 Q706.2969,489.4375 706.5156,489.4375 Q706.8906,489.4375 707.125,489.7031 Q707.3594,489.9531 707.3594,490.5625 L707.3594,492.0156 Q707.3594,492.625 707.125,492.8906 Q706.8906,493.1563 706.5156,493.1563 Q706.1719,493.1563 705.9688,492.9531 Q705.7656,492.7656 705.6563,492.25 Q705.6094,491.8906 705.4219,491.7031 Q705.0938,491.3281 704.4844,491.1094 Q703.875,490.8906 703.25,490.8906 Q702.4844,490.8906 701.8438,491.2188 Q701.2188,491.5469 700.7188,492.2969 Q700.2344,493.0469 700.2344,494.0781 L700.2344,495.1719 Q700.2344,496.4063 701.125,497.2344 Q702.0156,498.0469 703.6094,498.0469 Q704.5469,498.0469 705.2031,497.7969 Q705.5938,497.6406 706.0156,497.2031 Q706.2813,496.9375 706.4219,496.8594 Q706.5781,496.7813 706.7813,496.7813 Q707.1094,496.7813 707.3594,497.0469 Q707.625,497.2969 707.625,497.6406 Q707.625,497.9844 707.2813,498.3906 Q706.7813,498.9688 705.9844,499.2969 Q704.9063,499.75 703.6094,499.75 Q702.0938,499.75 700.8906,499.125 Q699.9063,498.625 699.2188,497.5625 Q698.5313,496.4844 698.5313,495.2031 L698.5313,494.0469 Q698.5313,492.7188 699.1406,491.5781 Q699.7656,490.4219 700.8594,489.8125 Q701.9531,489.1875 703.1875,489.1875 Q703.9219,489.1875 704.5625,489.3594 Q705.2188,489.5156 705.7656,489.875 Z " fill="#000000"/><text fill="#000000" font-family="sans-serif" font-size="14" lengthAdjust="spacing" textLength="32" x="719" y="499.7285">Libro</text><line style="stroke:#181818;stroke-width:0.5;" x1="680" x2="762" y1="510" y2="510"/><text fill="#000000" font-family="sans-serif" font-size="14" lengthAdjust="spacing" textLength="61" x="685" y="528.5332">int codigo</text><text fill="#000000" font-family="sans-serif" font-size="14" lengthAdjust="spacing" textLength="72" x="685" y="546.1426">Mesa mesa</text><line style="stroke:#181818;stroke-width:0.5;" x1="680" x2="762" y1="553.2188" y2="553.2188"/></g><!--MD5=[ef298d0419673b6c7dffaf46d57dd2c5]
class Hoja--><g id="elem_Hoja"><rect codeLine="40" fill="#F1F1F1" height="83.2188" id="Hoja" rx="2.5" ry="2.5" style="stroke:#181818;stroke-width:0.5;" width="75" x="680.5" y="326"/><ellipse cx="702.25" cy="342" fill="#ADD1B2" rx="11" ry="11" style="stroke:#181818;stroke-width:1.0;"/><path d="M705.0156,337.875 Q705.1719,337.6563 705.3594,337.5469 Q705.5469,337.4375 705.7656,337.4375 Q706.1406,337.4375 706.375,337.7031 Q706.6094,337.9531 706.6094,338.5625 L706.6094,340.0156 Q706.6094,340.625 706.375,340.8906 Q706.1406,341.1563 705.7656,341.1563 Q705.4219,341.1563 705.2188,340.9531 Q705.0156,340.7656 704.9063,340.25 Q704.8594,339.8906 704.6719,339.7031 Q704.3438,339.3281 703.7344,339.1094 Q703.125,338.8906 702.5,338.8906 Q701.7344,338.8906 701.0938,339.2188 Q700.4688,339.5469 699.9688,340.2969 Q699.4844,341.0469 699.4844,342.0781 L699.4844,343.1719 Q699.4844,344.4063 700.375,345.2344 Q701.2656,346.0469 702.8594,346.0469 Q703.7969,346.0469 704.4531,345.7969 Q704.8438,345.6406 705.2656,345.2031 Q705.5313,344.9375 705.6719,344.8594 Q705.8281,344.7813 706.0313,344.7813 Q706.3594,344.7813 706.6094,345.0469 Q706.875,345.2969 706.875,345.6406 Q706.875,345.9844 706.5313,346.3906 Q706.0313,346.9688 705.2344,347.2969 Q704.1563,347.75 702.8594,347.75 Q701.3438,347.75 700.1406,347.125 Q699.1563,346.625 698.4688,345.5625 Q697.7813,344.4844 697.7813,343.2031 L697.7813,342.0469 Q697.7813,340.7188 698.3906,339.5781 Q699.0156,338.4219 700.1094,337.8125 Q701.2031,337.1875 702.4375,337.1875 Q703.1719,337.1875 703.8125,337.3594 Q704.4688,337.5156 705.0156,337.875 Z " fill="#000000"/><text fill="#000000" font-family="sans-serif" font-size="14" lengthAdjust="spacing" textLength="28" x="717.75" y="347.7285">Hoja</text><line style="stroke:#181818;stroke-width:0.5;" x1="681.5" x2="754.5" y1="358" y2="358"/><text fill="#000000" font-family="sans-serif" font-size="14" lengthAdjust="spacing" textLength="61" x="686.5" y="376.5332">int codigo</text><text fill="#000000" font-family="sans-serif" font-size="14" lengthAdjust="spacing" textLength="63" x="686.5" y="394.1426">Libro libro</text><line style="stroke:#181818;stroke-width:0.5;" x1="681.5" x2="754.5" y1="401.2188" y2="401.2188"/></g><!--MD5=[d268c9743e7e3d4370f6e2c0ab4de596]
class Linea--><g id="elem_Linea"><rect codeLine="45" fill="#F1F1F1" height="83.2188" id="Linea" rx="2.5" ry="2.5" style="stroke:#181818;stroke-width:0.5;" width="73" x="675.5" y="95"/><ellipse cx="693.2" cy="111" fill="#ADD1B2" rx="11" ry="11" style="stroke:#181818;stroke-width:1.0;"/><path d="M695.9656,106.875 Q696.1219,106.6563 696.3094,106.5469 Q696.4969,106.4375 696.7156,106.4375 Q697.0906,106.4375 697.325,106.7031 Q697.5594,106.9531 697.5594,107.5625 L697.5594,109.0156 Q697.5594,109.625 697.325,109.8906 Q697.0906,110.1563 696.7156,110.1563 Q696.3719,110.1563 696.1688,109.9531 Q695.9656,109.7656 695.8563,109.25 Q695.8094,108.8906 695.6219,108.7031 Q695.2938,108.3281 694.6844,108.1094 Q694.075,107.8906 693.45,107.8906 Q692.6844,107.8906 692.0438,108.2188 Q691.4188,108.5469 690.9188,109.2969 Q690.4344,110.0469 690.4344,111.0781 L690.4344,112.1719 Q690.4344,113.4063 691.325,114.2344 Q692.2156,115.0469 693.8094,115.0469 Q694.7469,115.0469 695.4031,114.7969 Q695.7938,114.6406 696.2156,114.2031 Q696.4813,113.9375 696.6219,113.8594 Q696.7781,113.7813 696.9813,113.7813 Q697.3094,113.7813 697.5594,114.0469 Q697.825,114.2969 697.825,114.6406 Q697.825,114.9844 697.4813,115.3906 Q696.9813,115.9688 696.1844,116.2969 Q695.1063,116.75 693.8094,116.75 Q692.2938,116.75 691.0906,116.125 Q690.1063,115.625 689.4188,114.5625 Q688.7313,113.4844 688.7313,112.2031 L688.7313,111.0469 Q688.7313,109.7188 689.3406,108.5781 Q689.9656,107.4219 691.0594,106.8125 Q692.1531,106.1875 693.3875,106.1875 Q694.1219,106.1875 694.7625,106.3594 Q695.4188,106.5156 695.9656,106.875 Z " fill="#000000"/><text fill="#000000" font-family="sans-serif" font-size="14" lengthAdjust="spacing" textLength="35" x="707.8" y="116.7285">Linea</text><line style="stroke:#181818;stroke-width:0.5;" x1="676.5" x2="747.5" y1="127" y2="127"/><text fill="#000000" font-family="sans-serif" font-size="14" lengthAdjust="spacing" textLength="61" x="681.5" y="145.5332">int codigo</text><text fill="#000000" font-family="sans-serif" font-size="14" lengthAdjust="spacing" textLength="59" x="681.5" y="163.1426">Hoja hoja</text><line style="stroke:#181818;stroke-width:0.5;" x1="676.5" x2="747.5" y1="170.2188" y2="170.2188"/></g><!--MD5=[8f63dadf5c643e74a34e53c8f0a15d23]
class Persona--><g id="elem_Persona"><rect codeLine="50" fill="#F1F1F1" height="259.3125" id="Persona" rx="2.5" ry="2.5" style="stroke:#181818;stroke-width:0.5;" width="168" x="450" y="7"/><ellipse cx="503.25" cy="23" fill="#ADD1B2" rx="11" ry="11" style="stroke:#181818;stroke-width:1.0;"/><path d="M506.0156,18.875 Q506.1719,18.6563 506.3594,18.5469 Q506.5469,18.4375 506.7656,18.4375 Q507.1406,18.4375 507.375,18.7031 Q507.6094,18.9531 507.6094,19.5625 L507.6094,21.0156 Q507.6094,21.625 507.375,21.8906 Q507.1406,22.1563 506.7656,22.1563 Q506.4219,22.1563 506.2188,21.9531 Q506.0156,21.7656 505.9063,21.25 Q505.8594,20.8906 505.6719,20.7031 Q505.3438,20.3281 504.7344,20.1094 Q504.125,19.8906 503.5,19.8906 Q502.7344,19.8906 502.0938,20.2188 Q501.4688,20.5469 500.9688,21.2969 Q500.4844,22.0469 500.4844,23.0781 L500.4844,24.1719 Q500.4844,25.4063 501.375,26.2344 Q502.2656,27.0469 503.8594,27.0469 Q504.7969,27.0469 505.4531,26.7969 Q505.8438,26.6406 506.2656,26.2031 Q506.5313,25.9375 506.6719,25.8594 Q506.8281,25.7813 507.0313,25.7813 Q507.3594,25.7813 507.6094,26.0469 Q507.875,26.2969 507.875,26.6406 Q507.875,26.9844 507.5313,27.3906 Q507.0313,27.9688 506.2344,28.2969 Q505.1563,28.75 503.8594,28.75 Q502.3438,28.75 501.1406,28.125 Q500.1563,27.625 499.4688,26.5625 Q498.7813,25.4844 498.7813,24.2031 L498.7813,23.0469 Q498.7813,21.7188 499.3906,20.5781 Q500.0156,19.4219 501.1094,18.8125 Q502.2031,18.1875 503.4375,18.1875 Q504.1719,18.1875 504.8125,18.3594 Q505.4688,18.5156 506.0156,18.875 Z " fill="#000000"/><text fill="#000000" font-family="sans-serif" font-size="14" lengthAdjust="spacing" textLength="53" x="523.75" y="28.7285">Persona</text><line style="stroke:#181818;stroke-width:0.5;" x1="451" x2="617" y1="39" y2="39"/><text fill="#000000" font-family="sans-serif" font-size="14" lengthAdjust="spacing" textLength="61" x="456" y="57.5332">int codigo</text><text fill="#000000" font-family="sans-serif" font-size="14" lengthAdjust="spacing" textLength="60" x="456" y="75.1426">String dpi</text><text fill="#000000" font-family="sans-serif" font-size="14" lengthAdjust="spacing" textLength="86" x="456" y="92.752">String padron</text><text fill="#000000" font-family="sans-serif" font-size="14" lengthAdjust="spacing" textLength="97" x="456" y="110.3613">String nombre1</text><text fill="#000000" font-family="sans-serif" font-size="14" lengthAdjust="spacing" textLength="97" x="456" y="127.9707">String nombre2</text><text fill="#000000" font-family="sans-serif" font-size="14" lengthAdjust="spacing" textLength="98" x="456" y="145.5801">String apellido1</text><text fill="#000000" font-family="sans-serif" font-size="14" lengthAdjust="spacing" textLength="98" x="456" y="163.1895">String apellido2</text><text fill="#000000" font-family="sans-serif" font-size="14" lengthAdjust="spacing" textLength="65" x="456" y="180.7988">String foto</text><text fill="#000000" font-family="sans-serif" font-size="14" lengthAdjust="spacing" textLength="72" x="456" y="198.4082">String firma</text><text fill="#000000" font-family="sans-serif" font-size="14" lengthAdjust="spacing" textLength="156" x="456" y="216.0176">Date fechaDeNacimiento</text><text fill="#000000" font-family="sans-serif" font-size="14" lengthAdjust="spacing" textLength="120" x="456" y="233.627">Direccion direccion</text><text fill="#000000" font-family="sans-serif" font-size="14" lengthAdjust="spacing" textLength="69" x="456" y="251.2363">Linea linea</text><line style="stroke:#181818;stroke-width:0.5;" x1="451" x2="617" y1="258.3125" y2="258.3125"/></g><!--MD5=[66ea30d188a585b0c794341fef07a062]
link Direccion to Persona--><g id="link_Direccion_Persona"><path codeLine="65" d="M370.22,136.5 C392.42,136.5 414.61,136.5 436.81,136.5 " fill="none" id="Direccion-to-Persona" style="stroke:#181818;stroke-width:1.0;"/><polygon fill="#181818" points="449.87,136.5,443.87,132.5,437.87,136.5,443.87,140.5,449.87,136.5" style="stroke:#181818;stroke-width:1.0;"/></g><!--MD5=[b07b9bb1b49517f4f3a070ef658bf2ee]
reverse link Persona to Linea--><g id="link_Persona_Linea"><path codeLine="66" d="M631.54,136.5 C646.14,136.5 660.74,136.5 675.33,136.5 " fill="none" id="Persona-backto-Linea" style="stroke:#181818;stroke-width:1.0;"/><polygon fill="#181818" points="618.13,136.5,624.13,140.5,630.13,136.5,624.13,132.5,618.13,136.5" style="stroke:#181818;stroke-width:1.0;"/></g><!--MD5=[42ffd2bbdb1763098af9501a14f100a0]
reverse link Linea to Hoja--><g id="link_Linea_Hoja"><path codeLine="67" d="M713.41,191.25 C714.49,232.41 715.95,288.32 716.93,325.82 " fill="none" id="Linea-backto-Hoja" style="stroke:#181818;stroke-width:1.0;"/><polygon fill="#181818" points="713.07,178.18,709.2298,184.2835,713.3867,190.1758,717.227,184.0723,713.07,178.18" style="stroke:#181818;stroke-width:1.0;"/></g><!--MD5=[4be58fd8aed56aa91cce0b1d1c202971]
reverse link Hoja to Libro--><g id="link_Hoja_Libro"><path codeLine="68" d="M719.08,422.34 C719.44,440.64 719.85,460.78 720.19,477.88 " fill="none" id="Hoja-backto-Libro" style="stroke:#181818;stroke-width:1.0;"/><polygon fill="#181818" points="718.81,409.09,714.9294,415.1679,719.0473,421.0877,722.9279,415.0097,718.81,409.09" style="stroke:#181818;stroke-width:1.0;"/></g><!--MD5=[8c7bdb8e2ece1fd4325d726b6364df96]
link Mesa to Libro--><g id="link_Mesa_Libro"><path codeLine="69" d="M643.66,519.5 C650.96,519.5 658.26,519.5 665.56,519.5 " fill="none" id="Mesa-to-Libro" style="stroke:#181818;stroke-width:1.0;"/><polygon fill="#181818" points="678.7,519.5,672.7,515.5,666.7,519.5,672.7,523.5,678.7,519.5" style="stroke:#181818;stroke-width:1.0;"/></g><!--MD5=[23ae5931b66f5aa14745264fa2cbf386]
link CentroDeVotacion to Mesa--><g id="link_CentroDeVotacion_Mesa"><path codeLine="70" d="M363.31,519.5 C370.63,519.5 377.94,519.5 385.26,519.5 " fill="none" id="CentroDeVotacion-to-Mesa" style="stroke:#181818;stroke-width:1.0;"/><polygon fill="#181818" points="398.42,519.5,392.42,515.5,386.42,519.5,392.42,523.5,398.42,519.5" style="stroke:#181818;stroke-width:1.0;"/></g><!--MD5=[1d6d99bea5540f193132526a1772fe10]
link Direccion to CentroDeVotacion--><g id="link_Direccion_CentroDeVotacion"><path codeLine="71" d="M299.56,231.19 C296.99,301.04 293.55,394.54 291.31,455.63 " fill="none" id="Direccion-to-CentroDeVotacion" style="stroke:#181818;stroke-width:1.0;"/><polygon fill="#181818" points="290.82,468.91,295.0348,463.0589,291.2549,456.9179,287.0401,462.769,290.82,468.91" style="stroke:#181818;stroke-width:1.0;"/></g><!--MD5=[8a1b482a0cc85da215883e47ddf93c5c]
link Municipio to Direccion--><g id="link_Municipio_Direccion"><path codeLine="72" d="M201.17,136.5 C208.29,136.5 215.41,136.5 222.53,136.5 " fill="none" id="Municipio-to-Direccion" style="stroke:#181818;stroke-width:1.0;"/><polygon fill="#181818" points="235.77,136.5,229.77,132.5,223.77,136.5,229.77,140.5,235.77,136.5" style="stroke:#181818;stroke-width:1.0;"/></g><!--MD5=[00856e456bcd9567b42355f9bdcc1081]
reverse link Municipio to Departamento--><g id="link_Municipio_Departamento"><path codeLine="73" d="M104,200.3 C104,240.27 104,290.88 104,325.69 " fill="none" id="Municipio-backto-Departamento" style="stroke:#181818;stroke-width:1.0;"/><polygon fill="#181818" points="104,187.19,100,193.19,104,199.19,108,193.19,104,187.19" style="stroke:#181818;stroke-width:1.0;"/></g><!--MD5=[2b89e1693bbd6eba769c9f84ec61dd45]
@startuml Modelo de Datos

    class Departamento {
        int codigo
        String nombre
    }

    class Municipio {
        int codigo
        String nombre
        Departamento departamento
    }

    class Direccion {
        int codigo
        float longitud
        float latitud
        int zona
        int calle
        int avenida
        int casa
        Municipio municipio
    }

    class CentroDeVotacion {
        int codigo
        String nombre
        Direccion direccion
    }

    class Mesa {
        int codigo
        CentroDeVotacion centroDeVotacion
    }

    class Libro {
        int codigo
        Mesa mesa
    }

    class Hoja {
        int codigo
        Libro libro
    }

    class Linea {
        int codigo
        Hoja hoja
    }

    class Persona {
        int codigo
        String dpi
        String padron
        String nombre1
        String nombre2
        String apellido1
        String apellido2
        String foto
        String firma
        Date fechaDeNacimiento
        Direccion direccion
        Linea linea
    }

    Persona *-left- Direccion
    Persona *-right- Linea
    Linea *- - Hoja
    Hoja *- - Libro
    Libro *-left- Mesa
    Mesa *-left- CentroDeVotacion
    CentroDeVotacion *-up- Direccion
    Direccion *-left- Municipio
    Municipio *- - Departamento


@enduml

PlantUML version 1.2022.7(Mon Aug 22 11:01:30 CST 2022)
(GPL source distribution)
Java Runtime: Java(TM) SE Runtime Environment
JVM: Java HotSpot(TM) 64-Bit Server VM
Default Encoding: Cp1252
Language: en
Country: US
--></g></svg>