<?xml version="1.0" encoding="UTF-8" standalone="no"?><svg xmlns="http://www.w3.org/2000/svg" xmlns:xlink="http://www.w3.org/1999/xlink" contentStyleType="text/css" height="559px" preserveAspectRatio="none" style="width:785px;height:559px;background:#FFFFFF;" version="1.1" viewBox="0 0 785 559" width="785px" zoomAndPan="magnify"><defs/><g><!--MD5=[672b2ff73d0170c31623eed8ccfd2ea5]
class Departamento--><g id="elem_Departamento"><rect codeLine="2" fill="#F1F1F1" height="83.2188" id="Departamento" rx="2.5" ry="2.5" style="stroke:#181818;stroke-width:0.5;" width="122" x="43" y="309"/><ellipse cx="58" cy="325" fill="#ADD1B2" rx="11" ry="11" style="stroke:#181818;stroke-width:1.0;"/><path d="M60.7656,320.875 Q60.9219,320.6563 61.1094,320.5469 Q61.2969,320.4375 61.5156,320.4375 Q61.8906,320.4375 62.125,320.7031 Q62.3594,320.9531 62.3594,321.5625 L62.3594,323.0156 Q62.3594,323.625 62.125,323.8906 Q61.8906,324.1563 61.5156,324.1563 Q61.1719,324.1563 60.9688,323.9531 Q60.7656,323.7656 60.6563,323.25 Q60.6094,322.8906 60.4219,322.7031 Q60.0938,322.3281 59.4844,322.1094 Q58.875,321.8906 58.25,321.8906 Q57.4844,321.8906 56.8438,322.2188 Q56.2188,322.5469 55.7188,323.2969 Q55.2344,324.0469 55.2344,325.0781 L55.2344,326.1719 Q55.2344,327.4063 56.125,328.2344 Q57.0156,329.0469 58.6094,329.0469 Q59.5469,329.0469 60.2031,328.7969 Q60.5938,328.6406 61.0156,328.2031 Q61.2813,327.9375 61.4219,327.8594 Q61.5781,327.7813 61.7813,327.7813 Q62.1094,327.7813 62.3594,328.0469 Q62.625,328.2969 62.625,328.6406 Q62.625,328.9844 62.2813,329.3906 Q61.7813,329.9688 60.9844,330.2969 Q59.9063,330.75 58.6094,330.75 Q57.0938,330.75 55.8906,330.125 Q54.9063,329.625 54.2188,328.5625 Q53.5313,327.4844 53.5313,326.2031 L53.5313,325.0469 Q53.5313,323.7188 54.1406,322.5781 Q54.7656,321.4219 55.8594,320.8125 Q56.9531,320.1875 58.1875,320.1875 Q58.9219,320.1875 59.5625,320.3594 Q60.2188,320.5156 60.7656,320.875 Z " fill="#000000"/><text fill="#000000" font-family="sans-serif" font-size="14" lengthAdjust="spacing" textLength="90" x="72" y="330.7285">Departamento</text><line style="stroke:#181818;stroke-width:0.5;" x1="44" x2="164" y1="341" y2="341"/><text fill="#000000" font-family="sans-serif" font-size="14" lengthAdjust="spacing" textLength="61" x="49" y="359.5332">int codigo</text><text fill="#000000" font-family="sans-serif" font-size="14" lengthAdjust="spacing" textLength="89" x="49" y="377.1426">String nombre</text><line style="stroke:#181818;stroke-width:0.5;" x1="44" x2="164" y1="384.2188" y2="384.2188"/></g><!--MD5=[4da02cefe03f5f283808fbbc965e8df2]
class Municipio--><g id="elem_Municipio"><rect codeLine="7" fill="#F1F1F1" height="100.8281" id="Municipio" rx="2.5" ry="2.5" style="stroke:#181818;stroke-width:0.5;" width="194" x="7" y="77.5"/><ellipse cx="70.25" cy="93.5" fill="#ADD1B2" rx="11" ry="11" style="stroke:#181818;stroke-width:1.0;"/><path d="M73.0156,89.375 Q73.1719,89.1563 73.3594,89.0469 Q73.5469,88.9375 73.7656,88.9375 Q74.1406,88.9375 74.375,89.2031 Q74.6094,89.4531 74.6094,90.0625 L74.6094,91.5156 Q74.6094,92.125 74.375,92.3906 Q74.1406,92.6563 73.7656,92.6563 Q73.4219,92.6563 73.2188,92.4531 Q73.0156,92.2656 72.9063,91.75 Q72.8594,91.3906 72.6719,91.2031 Q72.3438,90.8281 71.7344,90.6094 Q71.125,90.3906 70.5,90.3906 Q69.7344,90.3906 69.0938,90.7188 Q68.4688,91.0469 67.9688,91.7969 Q67.4844,92.5469 67.4844,93.5781 L67.4844,94.6719 Q67.4844,95.9063 68.375,96.7344 Q69.2656,97.5469 70.8594,97.5469 Q71.7969,97.5469 72.4531,97.2969 Q72.8438,97.1406 73.2656,96.7031 Q73.5313,96.4375 73.6719,96.3594 Q73.8281,96.2813 74.0313,96.2813 Q74.3594,96.2813 74.6094,96.5469 Q74.875,96.7969 74.875,97.1406 Q74.875,97.4844 74.5313,97.8906 Q74.0313,98.4688 73.2344,98.7969 Q72.1563,99.25 70.8594,99.25 Q69.3438,99.25 68.1406,98.625 Q67.1563,98.125 66.4688,97.0625 Q65.7813,95.9844 65.7813,94.7031 L65.7813,93.5469 Q65.7813,92.2188 66.3906,91.0781 Q67.0156,89.9219 68.1094,89.3125 Q69.2031,88.6875 70.4375,88.6875 Q71.1719,88.6875 71.8125,88.8594 Q72.4688,89.0156 73.0156,89.375 Z " fill="#000000"/><text fill="#000000" font-family="sans-serif" font-size="14" lengthAdjust="spacing" textLength="59" x="90.75" y="99.2285">Municipio</text><line style="stroke:#181818;stroke-width:0.5;" x1="8" x2="200" y1="109.5" y2="109.5"/><text fill="#000000" font-family="sans-serif" font-size="14" lengthAdjust="spacing" textLength="61" x="13" y="128.0332">int codigo</text><text fill="#000000" font-family="sans-serif" font-size="14" lengthAdjust="spacing" textLength="89" x="13" y="145.6426">String nombre</text><text fill="#000000" font-family="sans-serif" font-size="14" lengthAdjust="spacing" textLength="182" x="13" y="163.252">Departamento departamento</text><line style="stroke:#181818;stroke-width:0.5;" x1="8" x2="200" y1="170.3281" y2="170.3281"/></g><!--MD5=[c68a4d4ab8967530748d0a41d206ebbd]
class Direccion--><g id="elem_Direccion"><rect codeLine="13" fill="#F1F1F1" height="188.875" id="Direccion" rx="2.5" ry="2.5" style="stroke:#181818;stroke-width:0.5;" width="134" x="236" y="33.5"/><ellipse cx="270.35" cy="49.5" fill="#ADD1B2" rx="11" ry="11" style="stroke:#181818;stroke-width:1.0;"/><path d="M273.1156,45.375 Q273.2719,45.1563 273.4594,45.0469 Q273.6469,44.9375 273.8656,44.9375 Q274.2406,44.9375 274.475,45.2031 Q274.7094,45.4531 274.7094,46.0625 L274.7094,47.5156 Q274.7094,48.125 274.475,48.3906 Q274.2406,48.6563 273.8656,48.6563 Q273.5219,48.6563 273.3188,48.4531 Q273.1156,48.2656 273.0063,47.75 Q272.9594,47.3906 272.7719,47.2031 Q272.4438,46.8281 271.8344,46.6094 Q271.225,46.3906 270.6,46.3906 Q269.8344,46.3906 269.1938,46.7188 Q268.5688,47.0469 268.0688,47.7969 Q267.5844,48.5469 267.5844,49.5781 L267.5844,50.6719 Q267.5844,51.9063 268.475,52.7344 Q269.3656,53.5469 270.9594,53.5469 Q271.8969,53.5469 272.5531,53.2969 Q272.9438,53.1406 273.3656,52.7031 Q273.6313,52.4375 273.7719,52.3594 Q273.9281,52.2813 274.1313,52.2813 Q274.4594,52.2813 274.7094,52.5469 Q274.975,52.7969 274.975,53.1406 Q274.975,53.4844 274.6313,53.8906 Q274.1313,54.4688 273.3344,54.7969 Q272.2563,55.25 270.9594,55.25 Q269.4438,55.25 268.2406,54.625 Q267.2563,54.125 266.5688,53.0625 Q265.8813,51.9844 265.8813,50.7031 L265.8813,49.5469 Q265.8813,48.2188 266.4906,47.0781 Q267.1156,45.9219 268.2094,45.3125 Q269.3031,44.6875 270.5375,44.6875 Q271.2719,44.6875 271.9125,44.8594 Q272.5688,45.0156 273.1156,45.375 Z " fill="#000000"/><text fill="#000000" font-family="sans-serif" font-size="14" lengthAdjust="spacing" textLength="59" x="288.65" y="55.2285">Direccion</text><line style="stroke:#181818;stroke-width:0.5;" x1="237" x2="369" y1="65.5" y2="65.5"/><text fill="#000000" font-family="sans-serif" font-size="14" lengthAdjust="spacing" textLength="61" x="242" y="84.0332">int codigo</text><text fill="#000000" font-family="sans-serif" font-size="14" lengthAdjust="spacing" textLength="81" x="242" y="101.6426">float longitud</text><text fill="#000000" font-family="sans-serif" font-size="14" lengthAdjust="spacing" textLength="69" x="242" y="119.252">float latitud</text><text fill="#000000" font-family="sans-serif" font-size="14" lengthAdjust="spacing" textLength="49" x="242" y="136.8613">int zona</text><text fill="#000000" font-family="sans-serif" font-size="14" lengthAdjust="spacing" textLength="48" x="242" y="154.4707">int calle</text><text fill="#000000" font-family="sans-serif" font-size="14" lengthAdjust="spacing" textLength="69" x="242" y="172.0801">int avenida</text><text fill="#000000" font-family="sans-serif" font-size="14" lengthAdjust="spacing" textLength="49" x="242" y="189.6895">int casa</text><text fill="#000000" font-family="sans-serif" font-size="14" lengthAdjust="spacing" textLength="122" x="242" y="207.2988">Municipio municipio</text><line style="stroke:#181818;stroke-width:0.5;" x1="237" x2="369" y1="214.375" y2="214.375"/></g><!--MD5=[9b7137e4fa784c4d7a13ee4532eda879]
class CentroDeVotacion--><g id="elem_CentroDeVotacion"><rect codeLine="24" fill="#F1F1F1" height="100.8281" id="CentroDeVotacion" rx="2.5" ry="2.5" style="stroke:#181818;stroke-width:0.5;" width="148" x="219" y="452"/><ellipse cx="234" cy="468" fill="#ADD1B2" rx="11" ry="11" style="stroke:#181818;stroke-width:1.0;"/><path d="M236.7656,463.875 Q236.9219,463.6563 237.1094,463.5469 Q237.2969,463.4375 237.5156,463.4375 Q237.8906,463.4375 238.125,463.7031 Q238.3594,463.9531 238.3594,464.5625 L238.3594,466.0156 Q238.3594,466.625 238.125,466.8906 Q237.8906,467.1563 237.5156,467.1563 Q237.1719,467.1563 236.9688,466.9531 Q236.7656,466.7656 236.6563,466.25 Q236.6094,465.8906 236.4219,465.7031 Q236.0938,465.3281 235.4844,465.1094 Q234.875,464.8906 234.25,464.8906 Q233.4844,464.8906 232.8438,465.2188 Q232.2188,465.5469 231.7188,466.2969 Q231.2344,467.0469 231.2344,468.0781 L231.2344,469.1719 Q231.2344,470.4063 232.125,471.2344 Q233.0156,472.0469 234.6094,472.0469 Q235.5469,472.0469 236.2031,471.7969 Q236.5938,471.6406 237.0156,471.2031 Q237.2813,470.9375 237.4219,470.8594 Q237.5781,470.7813 237.7813,470.7813 Q238.1094,470.7813 238.3594,471.0469 Q238.625,471.2969 238.625,471.6406 Q238.625,471.9844 238.2813,472.3906 Q237.7813,472.9688 236.9844,473.2969 Q235.9063,473.75 234.6094,473.75 Q233.0938,473.75 231.8906,473.125 Q230.9063,472.625 230.2188,471.5625 Q229.5313,470.4844 229.5313,469.2031 L229.5313,468.0469 Q229.5313,466.7188 230.1406,465.5781 Q230.7656,464.4219 231.8594,463.8125 Q232.9531,463.1875 234.1875,463.1875 Q234.9219,463.1875 235.5625,463.3594 Q236.2188,463.5156 236.7656,463.875 Z " fill="#000000"/><text fill="#000000" font-family="sans-serif" font-size="14" lengthAdjust="spacing" textLength="116" x="248" y="473.7285">CentroDeVotacion</text><line style="stroke:#181818;stroke-width:0.5;" x1="220" x2="366" y1="484" y2="484"/><text fill="#000000" font-family="sans-serif" font-size="14" lengthAdjust="spacing" textLength="61" x="225" y="502.5332">int codigo</text><text fill="#000000" font-family="sans-serif" font-size="14" lengthAdjust="spacing" textLength="89" x="225" y="520.1426">String nombre</text><text fill="#000000" font-family="sans-serif" font-size="14" lengthAdjust="spacing" textLength="120" x="225" y="537.752">Direccion direccion</text><line style="stroke:#181818;stroke-width:0.5;" x1="220" x2="366" y1="544.8281" y2="544.8281"/></g><!--MD5=[e5925cd15ccd4863e9dc4bc9e690e485]
class Mesa--><g id="elem_Mesa"><rect codeLine="30" fill="#F1F1F1" height="83.2188" id="Mesa" rx="2.5" ry="2.5" style="stroke:#181818;stroke-width:0.5;" width="245" x="402.5" y="461"/><ellipse cx="503.75" cy="477" fill="#ADD1B2" rx="11" ry="11" style="stroke:#181818;stroke-width:1.0;"/><path d="M506.5156,472.875 Q506.6719,472.6563 506.8594,472.5469 Q507.0469,472.4375 507.2656,472.4375 Q507.6406,472.4375 507.875,472.7031 Q508.1094,472.9531 508.1094,473.5625 L508.1094,475.0156 Q508.1094,475.625 507.875,475.8906 Q507.6406,476.1563 507.2656,476.1563 Q506.9219,476.1563 506.7188,475.9531 Q506.5156,475.7656 506.4063,475.25 Q506.3594,474.8906 506.1719,474.7031 Q505.8438,474.3281 505.2344,474.1094 Q504.625,473.8906 504,473.8906 Q503.2344,473.8906 502.5938,474.2188 Q501.9688,474.5469 501.4688,475.2969 Q500.9844,476.0469 500.9844,477.0781 L500.9844,478.1719 Q500.9844,479.4063 501.875,480.2344 Q502.7656,481.0469 504.3594,481.0469 Q505.2969,481.0469 505.9531,480.7969 Q506.3438,480.6406 506.7656,480.2031 Q507.0313,479.9375 507.1719,479.8594 Q507.3281,479.7813 507.5313,479.7813 Q507.8594,479.7813 508.1094,480.0469 Q508.375,480.2969 508.375,480.6406 Q508.375,480.9844 508.0313,481.3906 Q507.5313,481.9688 506.7344,482.2969 Q505.6563,482.75 504.3594,482.75 Q502.8438,482.75 501.6406,482.125 Q500.6563,481.625 499.9688,480.5625 Q499.2813,479.4844 499.2813,478.2031 L499.2813,477.0469 Q499.2813,475.7188 499.8906,474.5781 Q500.5156,473.4219 501.6094,472.8125 Q502.7031,472.1875 503.9375,472.1875 Q504.6719,472.1875 505.3125,472.3594 Q505.9688,472.5156 506.5156,472.875 Z " fill="#000000"/><text fill="#000000" font-family="sans-serif" font-size="14" lengthAdjust="spacing" textLength="34" x="524.25" y="482.7285">Mesa</text><line style="stroke:#181818;stroke-width:0.5;" x1="403.5" x2="646.5" y1="493" y2="493"/><text fill="#000000" font-family="sans-serif" font-size="14" lengthAdjust="spacing" textLength="61" x="408.5" y="511.5332">int codigo</text><text fill="#000000" font-family="sans-serif" font-size="14" lengthAdjust="spacing" textLength="233" x="408.5" y="529.1426">CentroDeVotacion centroDeVotacion</text><line style="stroke:#181818;stroke-width:0.5;" x1="403.5" x2="646.5" y1="536.2188" y2="536.2188"/></g><!--MD5=[a48731e35e4efcfa96e52c126b9a7dad]
class Libro--><g id="elem_Libro"><rect codeLine="35" fill="#F1F1F1" height="83.2188" id="Libro" rx="2.5" ry="2.5" style="stroke:#181818;stroke-width:0.5;" width="84" x="683" y="461"/><ellipse cx="707" cy="477" fill="#ADD1B2" rx="11" ry="11" style="stroke:#181818;stroke-width:1.0;"/><path d="M709.7656,472.875 Q709.9219,472.6563 710.1094,472.5469 Q710.2969,472.4375 710.5156,472.4375 Q710.8906,472.4375 711.125,472.7031 Q711.3594,472.9531 711.3594,473.5625 L711.3594,475.0156 Q711.3594,475.625 711.125,475.8906 Q710.8906,476.1563 710.5156,476.1563 Q710.1719,476.1563 709.9688,475.9531 Q709.7656,475.7656 709.6563,475.25 Q709.6094,474.8906 709.4219,474.7031 Q709.0938,474.3281 708.4844,474.1094 Q707.875,473.8906 707.25,473.8906 Q706.4844,473.8906 705.8438,474.2188 Q705.2188,474.5469 704.7188,475.2969 Q704.2344,476.0469 704.2344,477.0781 L704.2344,478.1719 Q704.2344,479.4063 705.125,480.2344 Q706.0156,481.0469 707.6094,481.0469 Q708.5469,481.0469 709.2031,480.7969 Q709.5938,480.6406 710.0156,480.2031 Q710.2813,479.9375 710.4219,479.8594 Q710.5781,479.7813 710.7813,479.7813 Q711.1094,479.7813 711.3594,480.0469 Q711.625,480.2969 711.625,480.6406 Q711.625,480.9844 711.2813,481.3906 Q710.7813,481.9688 709.9844,482.2969 Q708.9063,482.75 707.6094,482.75 Q706.0938,482.75 704.8906,482.125 Q703.9063,481.625 703.2188,480.5625 Q702.5313,479.4844 702.5313,478.2031 L702.5313,477.0469 Q702.5313,475.7188 703.1406,474.5781 Q703.7656,473.4219 704.8594,472.8125 Q705.9531,472.1875 707.1875,472.1875 Q707.9219,472.1875 708.5625,472.3594 Q709.2188,472.5156 709.7656,472.875 Z " fill="#000000"/><text fill="#000000" font-family="sans-serif" font-size="14" lengthAdjust="spacing" textLength="32" x="723" y="482.7285">Libro</text><line style="stroke:#181818;stroke-width:0.5;" x1="684" x2="766" y1="493" y2="493"/><text fill="#000000" font-family="sans-serif" font-size="14" lengthAdjust="spacing" textLength="61" x="689" y="511.5332">int codigo</text><text fill="#000000" font-family="sans-serif" font-size="14" lengthAdjust="spacing" textLength="72" x="689" y="529.1426">Mesa mesa</text><line style="stroke:#181818;stroke-width:0.5;" x1="684" x2="766" y1="536.2188" y2="536.2188"/></g><!--MD5=[ef298d0419673b6c7dffaf46d57dd2c5]
class Hoja--><g id="elem_Hoja"><rect codeLine="40" fill="#F1F1F1" height="83.2188" id="Hoja" rx="2.5" ry="2.5" style="stroke:#181818;stroke-width:0.5;" width="75" x="684.5" y="309"/><ellipse cx="706.25" cy="325" fill="#ADD1B2" rx="11" ry="11" style="stroke:#181818;stroke-width:1.0;"/><path d="M709.0156,320.875 Q709.1719,320.6563 709.3594,320.5469 Q709.5469,320.4375 709.7656,320.4375 Q710.1406,320.4375 710.375,320.7031 Q710.6094,320.9531 710.6094,321.5625 L710.6094,323.0156 Q710.6094,323.625 710.375,323.8906 Q710.1406,324.1563 709.7656,324.1563 Q709.4219,324.1563 709.2188,323.9531 Q709.0156,323.7656 708.9063,323.25 Q708.8594,322.8906 708.6719,322.7031 Q708.3438,322.3281 707.7344,322.1094 Q707.125,321.8906 706.5,321.8906 Q705.7344,321.8906 705.0938,322.2188 Q704.4688,322.5469 703.9688,323.2969 Q703.4844,324.0469 703.4844,325.0781 L703.4844,326.1719 Q703.4844,327.4063 704.375,328.2344 Q705.2656,329.0469 706.8594,329.0469 Q707.7969,329.0469 708.4531,328.7969 Q708.8438,328.6406 709.2656,328.2031 Q709.5313,327.9375 709.6719,327.8594 Q709.8281,327.7813 710.0313,327.7813 Q710.3594,327.7813 710.6094,328.0469 Q710.875,328.2969 710.875,328.6406 Q710.875,328.9844 710.5313,329.3906 Q710.0313,329.9688 709.2344,330.2969 Q708.1563,330.75 706.8594,330.75 Q705.3438,330.75 704.1406,330.125 Q703.1563,329.625 702.4688,328.5625 Q701.7813,327.4844 701.7813,326.2031 L701.7813,325.0469 Q701.7813,323.7188 702.3906,322.5781 Q703.0156,321.4219 704.1094,320.8125 Q705.2031,320.1875 706.4375,320.1875 Q707.1719,320.1875 707.8125,320.3594 Q708.4688,320.5156 709.0156,320.875 Z " fill="#000000"/><text fill="#000000" font-family="sans-serif" font-size="14" lengthAdjust="spacing" textLength="28" x="721.75" y="330.7285">Hoja</text><line style="stroke:#181818;stroke-width:0.5;" x1="685.5" x2="758.5" y1="341" y2="341"/><text fill="#000000" font-family="sans-serif" font-size="14" lengthAdjust="spacing" textLength="61" x="690.5" y="359.5332">int codigo</text><text fill="#000000" font-family="sans-serif" font-size="14" lengthAdjust="spacing" textLength="63" x="690.5" y="377.1426">Libro libro</text><line style="stroke:#181818;stroke-width:0.5;" x1="685.5" x2="758.5" y1="384.2188" y2="384.2188"/></g><!--MD5=[d268c9743e7e3d4370f6e2c0ab4de596]
class Linea--><g id="elem_Linea"><rect codeLine="45" fill="#F1F1F1" height="100.8281" id="Linea" rx="2.5" ry="2.5" style="stroke:#181818;stroke-width:0.5;" width="121" x="657.5" y="77.5"/><ellipse cx="696.8" cy="93.5" fill="#ADD1B2" rx="11" ry="11" style="stroke:#181818;stroke-width:1.0;"/><path d="M699.5656,89.375 Q699.7219,89.1563 699.9094,89.0469 Q700.0969,88.9375 700.3156,88.9375 Q700.6906,88.9375 700.925,89.2031 Q701.1594,89.4531 701.1594,90.0625 L701.1594,91.5156 Q701.1594,92.125 700.925,92.3906 Q700.6906,92.6563 700.3156,92.6563 Q699.9719,92.6563 699.7688,92.4531 Q699.5656,92.2656 699.4563,91.75 Q699.4094,91.3906 699.2219,91.2031 Q698.8938,90.8281 698.2844,90.6094 Q697.675,90.3906 697.05,90.3906 Q696.2844,90.3906 695.6438,90.7188 Q695.0188,91.0469 694.5188,91.7969 Q694.0344,92.5469 694.0344,93.5781 L694.0344,94.6719 Q694.0344,95.9063 694.925,96.7344 Q695.8156,97.5469 697.4094,97.5469 Q698.3469,97.5469 699.0031,97.2969 Q699.3938,97.1406 699.8156,96.7031 Q700.0813,96.4375 700.2219,96.3594 Q700.3781,96.2813 700.5813,96.2813 Q700.9094,96.2813 701.1594,96.5469 Q701.425,96.7969 701.425,97.1406 Q701.425,97.4844 701.0813,97.8906 Q700.5813,98.4688 699.7844,98.7969 Q698.7063,99.25 697.4094,99.25 Q695.8938,99.25 694.6906,98.625 Q693.7063,98.125 693.0188,97.0625 Q692.3313,95.9844 692.3313,94.7031 L692.3313,93.5469 Q692.3313,92.2188 692.9406,91.0781 Q693.5656,89.9219 694.6594,89.3125 Q695.7531,88.6875 696.9875,88.6875 Q697.7219,88.6875 698.3625,88.8594 Q699.0188,89.0156 699.5656,89.375 Z " fill="#000000"/><text fill="#000000" font-family="sans-serif" font-size="14" lengthAdjust="spacing" textLength="35" x="716.2" y="99.2285">Linea</text><line style="stroke:#181818;stroke-width:0.5;" x1="658.5" x2="777.5" y1="109.5" y2="109.5"/><text fill="#000000" font-family="sans-serif" font-size="14" lengthAdjust="spacing" textLength="61" x="663.5" y="128.0332">int codigo</text><text fill="#000000" font-family="sans-serif" font-size="14" lengthAdjust="spacing" textLength="59" x="663.5" y="145.6426">Hoja hoja</text><text fill="#000000" font-family="sans-serif" font-size="14" lengthAdjust="spacing" textLength="109" x="663.5" y="163.252">Persona persona</text><line style="stroke:#181818;stroke-width:0.5;" x1="658.5" x2="777.5" y1="170.3281" y2="170.3281"/></g><!--MD5=[8f63dadf5c643e74a34e53c8f0a15d23]
class Persona--><g id="elem_Persona"><rect codeLine="51" fill="#F1F1F1" height="241.7031" id="Persona" rx="2.5" ry="2.5" style="stroke:#181818;stroke-width:0.5;" width="168" x="438" y="7"/><ellipse cx="491.25" cy="23" fill="#ADD1B2" rx="11" ry="11" style="stroke:#181818;stroke-width:1.0;"/><path d="M494.0156,18.875 Q494.1719,18.6563 494.3594,18.5469 Q494.5469,18.4375 494.7656,18.4375 Q495.1406,18.4375 495.375,18.7031 Q495.6094,18.9531 495.6094,19.5625 L495.6094,21.0156 Q495.6094,21.625 495.375,21.8906 Q495.1406,22.1563 494.7656,22.1563 Q494.4219,22.1563 494.2188,21.9531 Q494.0156,21.7656 493.9063,21.25 Q493.8594,20.8906 493.6719,20.7031 Q493.3438,20.3281 492.7344,20.1094 Q492.125,19.8906 491.5,19.8906 Q490.7344,19.8906 490.0938,20.2188 Q489.4688,20.5469 488.9688,21.2969 Q488.4844,22.0469 488.4844,23.0781 L488.4844,24.1719 Q488.4844,25.4063 489.375,26.2344 Q490.2656,27.0469 491.8594,27.0469 Q492.7969,27.0469 493.4531,26.7969 Q493.8438,26.6406 494.2656,26.2031 Q494.5313,25.9375 494.6719,25.8594 Q494.8281,25.7813 495.0313,25.7813 Q495.3594,25.7813 495.6094,26.0469 Q495.875,26.2969 495.875,26.6406 Q495.875,26.9844 495.5313,27.3906 Q495.0313,27.9688 494.2344,28.2969 Q493.1563,28.75 491.8594,28.75 Q490.3438,28.75 489.1406,28.125 Q488.1563,27.625 487.4688,26.5625 Q486.7813,25.4844 486.7813,24.2031 L486.7813,23.0469 Q486.7813,21.7188 487.3906,20.5781 Q488.0156,19.4219 489.1094,18.8125 Q490.2031,18.1875 491.4375,18.1875 Q492.1719,18.1875 492.8125,18.3594 Q493.4688,18.5156 494.0156,18.875 Z " fill="#000000"/><text fill="#000000" font-family="sans-serif" font-size="14" lengthAdjust="spacing" textLength="53" x="511.75" y="28.7285">Persona</text><line style="stroke:#181818;stroke-width:0.5;" x1="439" x2="605" y1="39" y2="39"/><text fill="#000000" font-family="sans-serif" font-size="14" lengthAdjust="spacing" textLength="61" x="444" y="57.5332">int codigo</text><text fill="#000000" font-family="sans-serif" font-size="14" lengthAdjust="spacing" textLength="60" x="444" y="75.1426">String dpi</text><text fill="#000000" font-family="sans-serif" font-size="14" lengthAdjust="spacing" textLength="86" x="444" y="92.752">String padron</text><text fill="#000000" font-family="sans-serif" font-size="14" lengthAdjust="spacing" textLength="97" x="444" y="110.3613">String nombre1</text><text fill="#000000" font-family="sans-serif" font-size="14" lengthAdjust="spacing" textLength="97" x="444" y="127.9707">String nombre2</text><text fill="#000000" font-family="sans-serif" font-size="14" lengthAdjust="spacing" textLength="98" x="444" y="145.5801">String apellido1</text><text fill="#000000" font-family="sans-serif" font-size="14" lengthAdjust="spacing" textLength="98" x="444" y="163.1895">String apellido2</text><text fill="#000000" font-family="sans-serif" font-size="14" lengthAdjust="spacing" textLength="65" x="444" y="180.7988">String foto</text><text fill="#000000" font-family="sans-serif" font-size="14" lengthAdjust="spacing" textLength="72" x="444" y="198.4082">String firma</text><text fill="#000000" font-family="sans-serif" font-size="14" lengthAdjust="spacing" textLength="156" x="444" y="216.0176">Date fechaDeNacimiento</text><text fill="#000000" font-family="sans-serif" font-size="14" lengthAdjust="spacing" textLength="120" x="444" y="233.627">Direccion direccion</text><line style="stroke:#181818;stroke-width:0.5;" x1="439" x2="605" y1="240.7031" y2="240.7031"/></g><!--MD5=[66ea30d188a585b0c794341fef07a062]
link Direccion to Persona--><g id="link_Direccion_Persona"><path codeLine="65" d="M370.15,128 C388.29,128 406.43,128 424.57,128 " fill="none" id="Direccion-to-Persona" style="stroke:#181818;stroke-width:1.0;"/><polygon fill="#181818" points="437.77,128,431.77,124,425.77,128,431.77,132,437.77,128" style="stroke:#181818;stroke-width:1.0;"/></g><!--MD5=[6fc514eec0fea3cc2168e2dd79a3cae9]
link Persona to Linea--><g id="link_Persona_Linea"><path codeLine="66" d="M606.22,128 C618.86,128 631.5,128 644.14,128 " fill="none" id="Persona-to-Linea" style="stroke:#181818;stroke-width:1.0;"/><polygon fill="#181818" points="657.31,128,651.31,124,645.31,128,651.31,132,657.31,128" style="stroke:#181818;stroke-width:1.0;"/></g><!--MD5=[42ffd2bbdb1763098af9501a14f100a0]
reverse link Linea to Hoja--><g id="link_Linea_Hoja"><path codeLine="67" d="M719.15,192.13 C719.83,229.63 720.67,276.09 721.26,308.77 " fill="none" id="Linea-backto-Hoja" style="stroke:#181818;stroke-width:1.0;"/><polygon fill="#181818" points="718.9,178.76,715.0128,184.8337,719.1241,190.7579,723.0114,184.6842,718.9,178.76" style="stroke:#181818;stroke-width:1.0;"/></g><!--MD5=[4be58fd8aed56aa91cce0b1d1c202971]
reverse link Hoja to Libro--><g id="link_Hoja_Libro"><path codeLine="68" d="M723.08,405.34 C723.44,423.64 723.85,443.78 724.19,460.88 " fill="none" id="Hoja-backto-Libro" style="stroke:#181818;stroke-width:1.0;"/><polygon fill="#181818" points="722.81,392.09,718.9294,398.1679,723.0473,404.0877,726.9279,398.0097,722.81,392.09" style="stroke:#181818;stroke-width:1.0;"/></g><!--MD5=[8c7bdb8e2ece1fd4325d726b6364df96]
link Mesa to Libro--><g id="link_Mesa_Libro"><path codeLine="69" d="M647.66,502.5 C654.96,502.5 662.26,502.5 669.56,502.5 " fill="none" id="Mesa-to-Libro" style="stroke:#181818;stroke-width:1.0;"/><polygon fill="#181818" points="682.7,502.5,676.7,498.5,670.7,502.5,676.7,506.5,682.7,502.5" style="stroke:#181818;stroke-width:1.0;"/></g><!--MD5=[23ae5931b66f5aa14745264fa2cbf386]
link CentroDeVotacion to Mesa--><g id="link_CentroDeVotacion_Mesa"><path codeLine="70" d="M367.31,502.5 C374.63,502.5 381.94,502.5 389.26,502.5 " fill="none" id="CentroDeVotacion-to-Mesa" style="stroke:#181818;stroke-width:1.0;"/><polygon fill="#181818" points="402.42,502.5,396.42,498.5,390.42,502.5,396.42,506.5,402.42,502.5" style="stroke:#181818;stroke-width:1.0;"/></g><!--MD5=[1d6d99bea5540f193132526a1772fe10]
link Direccion to CentroDeVotacion--><g id="link_Direccion_CentroDeVotacion"><path codeLine="71" d="M300.49,222.52 C298.68,290.1 296.27,379.54 294.69,438.72 " fill="none" id="Direccion-to-CentroDeVotacion" style="stroke:#181818;stroke-width:1.0;"/><polygon fill="#181818" points="294.33,451.98,298.4868,446.0875,294.6464,439.9842,290.4896,445.8766,294.33,451.98" style="stroke:#181818;stroke-width:1.0;"/></g><!--MD5=[8a1b482a0cc85da215883e47ddf93c5c]
link Municipio to Direccion--><g id="link_Municipio_Direccion"><path codeLine="72" d="M201.17,128 C208.29,128 215.41,128 222.53,128 " fill="none" id="Municipio-to-Direccion" style="stroke:#181818;stroke-width:1.0;"/><polygon fill="#181818" points="235.77,128,229.77,124,223.77,128,229.77,132,235.77,128" style="stroke:#181818;stroke-width:1.0;"/></g><!--MD5=[00856e456bcd9567b42355f9bdcc1081]
reverse link Municipio to Departamento--><g id="link_Municipio_Departamento"><path codeLine="73" d="M104,192.13 C104,229.63 104,276.09 104,308.77 " fill="none" id="Municipio-backto-Departamento" style="stroke:#181818;stroke-width:1.0;"/><polygon fill="#181818" points="104,178.76,100,184.76,104,190.76,108,184.76,104,178.76" style="stroke:#181818;stroke-width:1.0;"/></g><!--MD5=[1a168be06e6cab906e82c4ee203022cd]
@startuml Modelo de Datos

    class Departamento {
        int codigo
        String nombre
    }

    class Municipio {
        int codigo
        String nombre
        Departamento departamento
    }

    class Direccion {
        int codigo
        float longitud
        float latitud
        int zona
        int calle
        int avenida
        int casa
        Municipio municipio
    }

    class CentroDeVotacion {
        int codigo
        String nombre
        Direccion direccion
    }

    class Mesa {
        int codigo
        CentroDeVotacion centroDeVotacion
    }

    class Libro {
        int codigo
        Mesa mesa
    }

    class Hoja {
        int codigo
        Libro libro
    }

    class Linea {
        int codigo
        Hoja hoja
        Persona persona
    }

    class Persona {
        int codigo
        String dpi
        String padron
        String nombre1
        String nombre2
        String apellido1
        String apellido2
        String foto
        String firma
        Date fechaDeNacimiento
        Direccion direccion
    }

    Persona *-left- Direccion
    Linea *-left- Persona
    Linea *- - Hoja
    Hoja *- - Libro
    Libro *-left- Mesa
    Mesa *-left- CentroDeVotacion
    CentroDeVotacion *-up- Direccion
    Direccion *-left- Municipio
    Municipio *- - Departamento


@enduml

PlantUML version 1.2022.7(Mon Aug 22 11:01:30 CST 2022)
(GPL source distribution)
Java Runtime: Java(TM) SE Runtime Environment
JVM: Java HotSpot(TM) 64-Bit Server VM
Default Encoding: Cp1252
Language: en
Country: US
--></g></svg>